<mxfile host="app.diagrams.net" modified="2024-06-20T22:49:59.598Z" agent="Mozilla/5.0 (Windows NT 10.0; Win64; x64) AppleWebKit/537.36 (KHTML, like Gecko) Chrome/125.0.0.0 Safari/537.36" etag="QGsuFrNgGr3vqt4hFswo" version="24.5.5" type="device">
  <diagram name="Page-1" id="rteDCkkKO6p-R6MeTjIK">
    <mxGraphModel dx="1199" dy="964" grid="1" gridSize="10" guides="1" tooltips="1" connect="1" arrows="1" fold="1" page="1" pageScale="1" pageWidth="850" pageHeight="1100" math="0" shadow="0">
      <root>
        <mxCell id="0" />
        <mxCell id="1" parent="0" />
        <mxCell id="-cgsFTUKVh0ujgJ57k_H-14" value="" style="shape=image;verticalLabelPosition=bottom;labelBackgroundColor=default;verticalAlign=top;aspect=fixed;imageAspect=0;image=data:image/png,iVBORw0KGgoAAAANSUhEUgAABYwAAAOQCAIAAAAVCaJWAAAAA3NCSVQICAjb4U/gAAAgAElEQVR4nOzdd3wU1eL38XNmtqf3SocQikaUIh1EIyB4LYgNL/BDEEGvCCKCCleqVPWKhSugFBHBhgqiolJUmgIWukDEhBBIKCm7m92dmeeP1Ty5lAAmJAt83n/wIrNnzzkzW+e7Z86RhmEIAAAAAACAqqZUdQcAAAAAAACEIKQAAAAAAAABgpACAAAAAAAEBEIKAAAAAAAQEAgpAAAAAABAQCCkAAAAAAAAAYGQAgAAAAAABARCCgAAAAAAEBAIKQAAAAAAQEAgpAAA4JL066+/9O3bt0GDBtWqVWvatOnEiRNzc3OrulOV7VBWVseOHaWUL774oqb5SrZv2LChTp06cXFxH3zwQRV2DwAAXChCCgAALj2ffPJJevrNW7du7du37/jx49u0bv2f//znnnvu2bfvt6ruWqXSDcPpdAoh3n//fbe7uGT7Dz/8sH//fsMwvF5v1fUOAABcMFNVdwAAAFyYgwcPPvHEEzVq1Fi+fHlkZKQQonfv3p27dHnggQemTZv+4osvWq1Wf8kjR47k5eX5fD673R4TExMWFubfXlhQkHMkx+l0mc2m8PCIuLg4wzAOHz7s8/mqV6/uL+PxeH7/PSMuLj40NFTTtN9/z3A4HCEhoQcPHtR1PSYmJjo6WlEUIYRhGHl5ecePHy8uLlZVNSYmJioqSkophNA1bd/+/VGRkarJdOjQIU3TYmJi4uLiSu/O0SNH8o4d83q9drstJiY2NDQ0Ozvb5/UmJycrquov43Q6f//99xrVqzuCgk45Gj6f75Zbbtm4ceNvv/2WlpYmhMjKylqzZs1VV10lhNA0raSGo0ePFhUVaZoWEhISHx9vs9n8N2VnZ7vd7vj4+MOHDxcWFgYHByclJVkslop91AAAwPkgpAAA4BIzZ86cw4cPv/HGG/6Ewi89Pb13797vvPPOfffd17ZtWyHEV199NWnSpP379+u6HhwcfNddd40ZM0YIcfDgwSlTpqxatcrlctnt9nr16s2ZM8dmsz311FO5ubmffPKJqqpCiN/27u3cpcvkyZPvvffeY8eOde9+a0JCQpvWrd9ZvPj48eNpaWnPP//8ddddJ4QoKMh/+OGH9+3bd+LECa/Xe80114wePbpZs2ZCiBMnT6anp6enp5vN5m+++SYvL69BgwbTpk3z31EI8fXXXz///PO//fabYRihoaG33HLLxIkTX3zhhW9Wr3777bdTUlL8xRYuXPj0qFHfrF7duHHjU46Gz+e7/vrrs7OzFy9efPXVV0spDxzYn5GR0alTp88++6yk2GuvvbZs2bKcnByn0xkeHtav34ODBw82m81CiGeeeea7776766671qxZc+DAAZvNNmTIkIcfftgfwQAAgMrEpy8AAJeYjRs3xsTENGrUqPRGRVGaNGly6NCh/fv3CyG2bt3au3dvTdMmTJgwf/78Rx55JCIiQgjhdBY9+eSTy5Yt69Wr17x586ZMmZKWlub1ehVFmlRVSukfASGE8I9i8AcWipR2u/3XX3/duWvnyy+/PGPGjD/++GPEiBGHDx8WQhQXe0JDQ5966qkFCxZMmjQpMzNz3LhxOTk5/l5JKVeuXOl2u1988cUpU6ZkZmZOmzatZEcGDBjg9XrHjR07f/78xx77V1BQkBCi4w03HDt2bNOmTSV7t3Tp0rRrrjk9oShxxx13fPbZZx6Px+v1fP31N5GRke3atSt9rUdRUdEdd9zxyiuvvPnmm23btpsxY8bSpUv9Nzkcjry8vE8++aRPnz5z5sxp06bNuHHjPvroo3I/UAAA4IIxkgIAgEvMiRMnqlWr5h8FUFpMTExMTIx/+swZM2aYTKb58+dXq1ZNCNGuXTt/mc8+W7l27drRo58dOPBh/5Zbb71VCJGfn19Wk1K63e6EhIRp06b7KywuLh42bNi2bds6d+4cHR09Z84cf8HWrVubTKbnnntu69atnTt39m+MjY2dNWuWqqr+i0oWLVq0Z8+elJSU119/XdO0OXPm1K5dWwjhHwAihGjSpElKSsratWvvueduk8m8e/fu7du3P//882frndfrve+++2bOnLlp06Z69eqtWvVl585dIiIidF0vKTN69OiS/zdu1Gj37t0rV6687777hBBSytzc3Llz53bv3l0I0bRp061bt86ZM+eOO+4o65gAAICLgJACAIBLimGc7RYp//9IiF9++aVly5axsbGnlNmxY4fFYrn22ususE1DkbJGjer+hEII0aZNm/j4+J9++unGG280mUy//PLLihXLMzOzPB5P5h9/nDhxoiT1MAyjY4cO/ksnpJQ1atQoKCjIz883DGPfvn1t27aNjo4+pbn4+Ph27dotWbLk119/veaaJu+8s8hqtZZEHmfsXt26da+55pr58+f36dMnMzOrR48eBw4cKF2moKDgo48++vnnn0+ePOl2uw8ePBgaGuq/Sdf15OTkBg0a+P90OBzt27dfs2bNyZMnS2bxAAAAlYPLPQAAuKRIGRoampmZefq6Fbm5ubm5uVFR0UIIr9cbGRl5+qwKLpfTZrM57PbTKzb+rF6esVlFVYOCgkv+DA4ONpvN+fn5uq5v3ry5f//+77333tGjR3VdF1Lqul4yY6UQIij4/9/RZDL5fD5N0woLC9xud3h4uMl0hp9MWrVq5XK5tm37SQixcuXn7du3Cw8PL+Oo6Lp+//33r1y5cvbs2bVq1UpJSSl9fDwez9ChQ8ePH797926Px+PfTU3T/EMtDMMICQkp6YaiKGFhYV6vt6CgoIwWAQDAxcBICgAALjFNmzbduHHjnj17WrZsWXr7tm3b4mJja9WsKYSw2+1ZWVm6pon/vSokLCy8qKgo/7TTb1VV7Xa7z+fzeDz+xUFOnDhREjRIKXw+3/Hjx0vK5+Xlud3umJgYk8k0e/bsvLy8jz/+OCEhPjw84oMPPvj5559LX2ph/O/oDymlrushIaFBQUHZ2dkej8fhcJzSn1atWjZq1Gjt2rURERGZmZnjxo0te7kNwzBuueWWIUOGrFixYuTIkafc+t1333366afjxo3r3r1baGjYsWPHBg8e7E8r/P3Jy8sr+VPTtJycHJvNGlVqXlIAAFA5GEkBAMAlpl+/ftHR0SNHjiwsLCzZ+M0338ybN69L165NmzUTQrRq1Wr9+vW79+w55b5NmjRRFOWrVatOGYhhs9mSk5NzcnIyMjL8Wz7++OOcnJy/xmJIKeWBAwe2bdvmv/Xzzz/Pyclp2rSpoii5ubmxsbENGjQID48QQvzyyy+ZmZlnHB9Rwh9hpKWlrV271j/T5ynMZkv79u22b98+derUpKSktLRrznlYwsPDn3rqqZ49e/bo0eOUm/Ly8rxeb9u2beLi4u12e0FBwbp160om9VBV9ciRI999952/V/n5+atWrapXL8V+WnQCAAAuNkZSAABwialTp86kSZMeffTRG264oVevXnFxcVu3bl24cGFKSsrw4cP9oxJGjHjyq6++uuOOO/7v//rWqlV727Zthq5PmTo1PT39tttue+HFFw9kZHTs2LGgoODbb78dO3Zs3bp1W7Vq9fLLLz/11FN33XXXhg0bfvjhByGE/9oPwzBsNltWVtawYcPuvvvurKysN954o3v37g0bNhRCdOjQYcyYMUOHDm3evPnq1au//PLLhISE0iMpzuaxxx5bu3Ztz549+/TpU7du3V27dmVnZ8+aNct/64033vTOO4u/++670aNHn8/cEFLKRx991Ov1Bpe6usTv+uuvDw8P799/QL9+/XJzc997773S4zL8c1KMGzfu998zkpOrzZ8/3+v1Pvroo+f3aAAAgIpESAEAwKXnrrvuqlWr1vTp02fOnFlYWBgTE9O3b9+HH344MTHRXyApKXnZsmXjxo2bPXuOx+NJSkrq27ev/6bnJ02qUaPGggULVq5cGRYW1qZNm6ioKCFE69atx40bN2XKlA0bNrRv337EiBHDhg3T/7pSwzCMdu3apaenT548uaCg4Oabb37uueciIyOFEA8++OChQ4eWLl26dOnS9PT0YcOGzZ49uySkMJlMpafGkFKqquqf+aJWrVrvvvvupEmT5s6d6+9kr169Sko2bNiwQYPUDRs2dOvWzX8FyumkFCaTSVX/rN9qtZaUlFKWNJ2cnDxz5sxx48aNGjUqOTn5nnvu2b17d2Zmpr+kpmmxsbH/+te/3n777e3bZ1erlvzqq6+2bt263I8SAAC4YNI4+yThAAAgkOm6bhiGYRhSSkVRTp/z0jAMf5lTCpTe7r/plO2KoiiKomma/165ubnp6enXXHPN3LlzfT6fEKIkaDj9jv4pJ0qaK6mkdMnSW8rYi969ex88eHDRokUJCQlnPgSGoel66V04pUunNKT/Vdj//cd/r0GDBq1fv37ZsmXVq1f3+Xz+GOXCHgkAAFBBGEkBAMCl6vQz81Oc7Xz7PLefscwZJ5so446nVHJ602fIF3RdSLFp0+ZNmzY9+OCDcXGnLqRaurqzBQpnbKikrbMtYlL2VBoAAOBi45MYAACcg2EYbre7ZP2Liy0zK+vdd99dsmSJ3W7v3LmzolzccQ0ej8ftdhvnMYkGAAC42AgpAADAOVit1htvvLFOnTqV01xRUdH27durV6/+yCOPNGrU6GI3d+2119rtdkdQ0MVuCAAAnBNzUgAAAAAAgIBwjmtZAQAAAAAAKkclhhSGIRi1AQAAAADAFcMwDCEuIAqovDkp5sydO2fOHLPZXGktAoFGUaSUiqZpVd0RoMr4V3/kVYArnMlk8q/kClyxTKqq6ToXnuNKpqqqf/nuqu7IRef1eocNG3rnnT3Os3zlhRQ7duyIiop66KGHfD4f70e40kgppFRycnKOHj3auHFjwzB4FeAKJKUsKircvXtPkyZNpGRSJFyJpBQ+n7Zly5Zrr73WZFJ5EeAK5H//37JlS2pqalBQEJ8FuAJJKaWUv/76a2xsbGxszGV8ZiClNJvNU6ZM2bdv//nfq/JCCl3XGzZs2K1bt0prEQg02dnZBw8ebNGiRVV3BKgyTqdz/fr1nTp1quqOAFUpODi4c+fOVd0LoCqFhoa2atnS7nBUdUeAKhMXF1ezZs34+Piq7shF9/77719QDFOpE2cyvhdXOJ/Xy/heXOG8Xi+fBbjC+V8FPq+3qjsCVCVN07w+XgW4omk+n/fK+Cy40O9+rO4BAAAAAAACAiEFAAAAAAAICJU3JwUAAAAA4BJiGIbHU+x2F+u6XtV9uXz4J86UiuJ2u0+eOGGIy2TiTLPZZLXayr+gJyEFAAAAAOBUhmGcOHHi6NGj/hXEq7o7l5uIiAjDMHLz8qq6IxXG5/OZzebExESbzVaeeggpAAAAAACncrlcR48eDQkJiYqKUlW1qrtzuSksLLRYzBaLtao7UkEMw+PxHM7Jyc7OrlmzppTyb9dESAEAAAAAOJXb7VZVJTo6uvwD+HE6VVVV1XQ5pT92kykmJuaPP/7web1mi+Vv18OgHQAAAADAqXRdV1X1cjqLDiyGcZnMRVGKyWSSUupGuWYwIaQAAAAAAAABgcs9AAAAAADn5nIZx48ZekX8/B8RIYOC/v60BbiMEVIAAAAAAM7B5TJ69nTt3GkoihCiXPmCYRjR0fKTT2zR0Wcd2u/1ep988snPP/9c13WbzZaWlvbYY49de+21/lt//PGHmTNf+emnn6SUzZo1e/jhh9PS0oQQPp9vwIABa9euNZvNJpMpOTm5d+/e99xzj/9excXF77777sKFC7Ozs6Ojo7t37/7oo4+qqrpkyZKRI0fabDZFUVRV9fl8hmF4PJ7//Oc/Xbt2Lc8ckPgbCCkAAAAAAOdw/Jixd6/Yt8//V3lHUxw/bhw9akRHn7WAoeuHDh1q1KjRmDFjcnNzZ82aNWzYsNdefTW1QYNPP/1kyJDHb7755mnTpmma9vbbb/fq1WvGjBk33XSTYRi7d+++8847e/To4fP51q1d++yzz8bExHTq1Mnlcj3zzDMrV6586KGHmjdv/tvevdNnzPj222+XLFnSqVOnd99dbLc7vvnmm/nz5z/88MNt2rR2udx169Yloah8hBQAAAAAgHMwhKjYeR7LnjbSEMJkMkVFRTVu3FgIcfLkyZFPPbX3t99SU1OffXZ0mzZtpk6d6nA4hBBXX3314MGDZ8yYcf311wcHB+u6XqdO7WbNmgohGzZsuHzFii1btnTq1Gn58uVLliyZNGlSr169hBDXX399w0YNu3TpOmvWrMGDB8fExAghsrKywsLC6tevf9VVV1fkruJCMHEmAAAAACCwSCkMwygoKMjNzd2/f/+qVavyCwrCw8O//PLLQ4eyBg8a5E8ohBBxcXE9e/bcvXv35s2bpZRSytyjub//fvDgwYOfffbZsWPHWrVqJYTx7bff1qtX74Ybbihp4tprr2vRovmHH3xQRbuIM2MkBQAAAAAg0EhN05YvX7558+aTJ09mZmY++uijrVq1+u9//6uqalx8XOmikZGRJpMpJydHCGG32//z8stvL1rk8Xjcbvett97aokWL48dPZGVlxcTEREVFlb5jrVq1V6xYUam7hXNhJAUAAAAAIMAYhqqqt99++9atW99///1+/fo1a9ZUVVWz2azrhv6/S4z4fD5d1y0WixDC5XINHz7822+/3bhx4/z587///vvRo0cHBQVZrVav1+vz+Urf0eVyWa3WSt0vnAshBQAAAAAgsBhCSCmtVqvZbG7evPktt9yyaNE7W7ZsadGihdls/v7770tPafHrr79aLJZ69eoJIQzDCAkJjogIj4yMbNumTdcuXT777DOLxZKamrp37969e/eU3Mvj8fz4448lK4YgQBBSAAAAAAACj2GUJBG33HJLWFjYkiVLGjdufOONNz7//PNr1qzx+Xw+n++jjz6aN29e165dr776ak3ThBBCSP8iqVmHDm3+4Yfw8DAhRJcuXRRFeeml/2RlZQkhjhw5MmHChJycnIEDB1bV/uGMmJMCAAAAAHAOFbu0x/lUWOR02v+aHdNisXTu3Hnq1KndunWbOHHiM888M3HixMjISE3Tjh8/3rFjx6FDhwohNE2zWq2vvfba119/LaUsKioqLi4eMWKEEOK6666bMGHCq6++2r9//7CwMLfbffz48YkTJ7Zq1aqkRa/XW1hYeMolIahkhBQAAAAAgHNwOIRScQPxpRRBQbKMAmazaejQoaUnjPjHP/4RFhaWlJSUkJAwffr09eu/P3jwDyllrVo1mzVrHh4eLoQwmUyjRo367bffDEMXQoaFhV199dVXX/3neqLdunWrX7/+5s2bT5w4ERwcnJaWVnKT33XXXTt27NhTNqKSEVIAAAAAAM4hIkKZMsV04IBuGEKWFS+cm2GI+HglKamszENR1Hbt2v1vByJuv/12///Dw8O7dOl6pnsp6enp6enpZ6u2Xr16/qkrzigxMSkxMekcvcdFRkgBAAAAADgHKUX37hZdr5jaKnBQBi4zhBQAAAAAgPNCuICLjacYAAAAAAAICIQUAAAAAAAgIBBSAAAAAACAgEBIAQAAAAAAAgIhBQAAAAAACAiEFAAAAAAAICCwBCkAAAAAILBomrZkyZIff/yxuLhYSul2u2+99dbExMTly5cfOXJEUZTo6OgOHTq0bdvWX37Txo0L335bCGEYhpRS1/X77ruvZcuWP//888KFC91ut5RSCOFyuXr37t2mTZuq3DeUiZEUAAAAAIDAovl8ixcvXrVqVXR0dGhoaFhYWFhY6MaNG+fPn+/z+UJDQ3//PWPYsGFffvmlv/z6DRs++OADRVEiIiJCQ0NDQ0OtVothGFu2bFmwYEGY//6hoWFhYVarpWp3DWVjJAUAAAAAILAYQgQHB7dv337MmDElG3fu3FWrVq3hw5+oXbtOXl7e7bfdNn/+/JtuukkI4fF4GjVq9Mwzz0RHR///SgxDCBEbGzt+/PjK3wX8PYykAAAAAAAEIkWRp21RhPjzwo28Y8fy8/NLblIVRVHOcIbrv9ADlwpGUgAAAAAAAouU0ufzLVr0zldffe31eqOjo6dOnRoSErJ7166bb77ZYrEUFhY6nc6xY8f6y9vt9s9WrmzTpo2qqoZhaJr2wQcfNGiQajGbf/7556uuusowDMMwTCbTyy+/3K5du6rdO5SBkAIAAAAAEGgMVVU7dOgwatQot9ttNpuvuqrx9u3bk5KThw4dGhcXN+v11x1BQXfeeae/dHFxcbNmzcaNGxcdHa1pmmEYNWvWNAzh03x16tR58803dV03DENRZEpK/ardMZSNkAIAAAAAEFgMQ0ghYmNj09LSSjZqmma329PS0urUqdOkSZMuXbosWrTovvvuE0Louh4eHn7ttdfGxMSUqsTQdcNutzdt2rQK9gF/C3NSAAAAAAAuMXa7vV+/ftOnT/d6vWWXZE6KSwsjKQAAAAAAAcfj9ZwSQGg+X3FxsX/NDillt27dXnjhhRdeeOHJJ580mUxZWVnLli2LjIzUNE0YRqPGjVNTU4UQJ0+efP/99/1zUvh8vrS0tAapqfJMU2wiEBBSAAAAAAACi6IozZo1CwkJLb2xVu3abdq0CQoK8v8ZEhIyePDgXbt2CSHq168fHR29aNEif4Sh63rv3r1TU1Nr1aqVmpo6c+ZM/11cLtfAgQNTUlJMhBSBipACAAAAABBYzGbzk0+OOGVj586dO3fuXLrMgw8+6P9/165du3bteno9HTp06NChw0XrJioe6REAAAAAAAgIhBQAAAAAACAgEFIAAAAAAICAQEgBAAAAAAACAiEFAAAAAAAICIQUAAAAAAAgIBBSAAAAAACAgGCq6g4AAAAAAC4NhmFUSD1SygqpB5cfQgoAAAAAwLmtW7fu4MGDFZJTxMXFdezY0WQ6xwmpz+f7PSMj79gxwzAiIiKqV69us9mEEAcOHMjLy/N4PFJKu92elJQUExPjv0tRUdHBgwfz8/MVRQkODk5KSlRV05YtW1RVVRTFbDZrms/n04QQSUmJNWrU9Pl8O3bssFqt9evXL920pmkHDx7My8vTNC0oKCg+Pj46OlrTtIyMDP+fJSUNw8jKyszOPuz1eqUUhiFUVU1NTQ0LCyv/gboCEVIAAAAAAM7h+PHjDz300M6dOyuktujo6B9++KFGjRpllHG7XHPmzl26dKnb7dZ13Wazde/efcCA/mFh4Y899tiGDRuqVasmpVRVtUGDBk8//XS9evUKCwtefPGlVatWuVwuRZGhoWH33ntPq1atBwwYEBwc7HQ6MzMzY2JiIiIifD7fAw/0Gvr40IyMjNatWzdp0uSjjz6KjIz0N+10Ot96662PPvro+PHjJpMpLCy0ceOrBg4cGBcX98gjj7Rp0+bpp58u6afH4xn73NjF776bmpqqa5puGDabbfr06S1btqyQY3WlIaQAAAAAAJxDUVGRpmkVVZthGIWFhWUU0HV9zty548ePHzd27N333KOq6nvvvTdmzBiPx/P000/b7fZ77rnnP/95SQi5efPmIUOG/Pe//506deo77yxetmzZqFEju3Tp6nK5duzY4Xa7U1JS/NnK3r17e/fu/eijj957773+VjRN++yzz66//vqrrrrqnXfeGTx4sH/7zJkvv/rqa4MHD+7Zs2d8fPy+fftWffnlgQMHkpOTFeW0iR0Nw2qzde3adfHixRV1fK5khBQAAAAAgHOo8Fkkyq4wPz9/xowZd9xxx4P9+/u3/POf/9y9e/e8efN69eqlqqrVajUMIaWoVq1aTEyMx+MRQmRkZERERFx33XU2m81ms7Vu3brsPrjd7iVLljz77LPZ2dnLli3zhxQZGRnz5s3v16/fkCFDzGazEKJhw4YNGzYUQpw8efJs+6Kq6oUfA5wBIQUAAAAAILDs37+/oKCge/fupTe2bdv2zTffzMrKklJ+/fXXgwYNMgwjKytLVdX+/fsLIW655ZZ169YNHPhw06ZNGzdu3LJly2rVqpXRysaNG/Pz89PT0zdt2rRkyZLvvvuudevWP/7wQ15eXufOnf0JxblJaRjG5s2bH3vsMa/X6/P5qlWr1rdv3+Tk5HIcgCsXS5ACAAAAAAJLXl6eoighISGlNwYHB5tMpqKiIl3XHQ5HYmJCQkJCZGTEsWPH9uzZI4Ro1arVtGnTmjdvnpGRMXfu3Hvvvfe9994ro5V58+b17NlTCNG4caNGjRotX75cCFFYVOSfYvOCOuxwOBITExMSEhITE2NjYy/07ijBSAoAAAAAQGCpVq2apmmHDh0qvTEnJ8fr9UZFRSmK0qRJk2eeeVZKWVhYOG7cuOnTp7do3jwpObl58+ZNmzbNzc3Nzs6eNev18ePGdenSJSgo6PQmsrOzV65cuX79+pUrVxqGfuBAxjXXXJOfn58QHy+EyM/PP9++GoYQIjU1dcSIEeXdbTCSAgAAAAAQaKpXr169evV33nmn9MYVK1YkJSUlJSUahlEypUVwcHD9+vWPHTuWm5fr36IoSmxsbFpa2t1335137Njx48fP2MTixYvr1KkzbtzYhx566JFHHh06dGhxcfEXX3zR6cYbExMT582b53QWlRTWNK1k3tAKn54DpTGSAgAAAAAQWBwOx/jx4/2zVw4ePFhV1TfeeOPLL76YMnVqXFy8pmkul+vo0aNSip9//mXWrFkNGjRIS7vmrbfe2r9//0033VSjRo3MzMyJEyfWqlWr9NwQhmGU/P/tt9++77777r77Hv+fHo9nx44dq1at6tGjx6hRox5//PFHH/1X3759a9SosXv3ro8//qRt27b/+Mc/FEU5fPjwnj17/FN1KopSu3ZtIURxcbHT6fxzyRLDCAsPt1qtlXnELhuEFAAAAACAgNO5c+elS5dOmTK5c+ebdd1o2LDhnLlzb7yxkxDCYrF89NFHn376qaIoYWFh7dq1e+KJJ4QQKSkpq1evfuSRR06cOBEeHnYM+i4AACAASURBVN66desRI54sqVBKabVaTSZVCLFu7drc3Nzbbrut5FaLxdKyZcvFixf/+usvd9xxR1xc3MyZM/v16+f1emvUqHHbbbd17dq1uLg4MjJy9uzZS5cuLbnXzp07zWbz6tWr69WrJ4QwDMPpdC5cuLBbt26VebguG4QUAAAAAIBziIiISExMPHHiRPnX2jQMIyoqKjo6uuxiUsrWrVsvW/bx6TctWLDgjHdp1apVq1atzlZh3bp1V69e7f9/23btMjIyTinw4IMPPvjgg/7/t27d+owrmM6bN2/evHmnbJwxY8aMGTPO1i4uCCEFAAAAAOAcHA7Hhx9+mJubW/qKib8tMjIyKiqq/PXg8kNIAQAAAAA4t/Dw8PDw8KruBS5zrO4BAAAAAAACAiEFAAAAAAAICIQUAAAAAAAgIBBSAAAAAACAgEBIAQAAAAAAAgIhBQAAAAAACAgsQQoAAAAAODe32+1yuQzDKH9VNpvN4XCUvx5cfggpAAAAAADn4PV6V6xYkZeXp0gpZLmqMgxht9tvv/32MnIKr9fTv/+AFStWmM1mIYTP50tMTHzppZdee+21hISE8ePHOxwOwzAWLVr02muv3X333aNHj/Zv0XVdURQppZRy2LBhLa+/vnOXLkFBQf5qi4qKnn766eHDh69cuXLgwIHNmjVbunSp/6ZXXnnl889Xzps3PyIi4rbbblu7dq3dbrdarXFxcW3atOnfv39KSooQIjc3d8CAAatXr7bb7UIIwzBCQkJ+/OEHd3Hx448/vnz5cofDYbFYkpKSOnToMGjQoISEhLPto6qq+/btmzZt2tq1a51OZ82aNf/5z3/27t1bURQhxOjRz77++iyTyaQoSkRExE033fTvf/87NDRUCLFhw4apU6f+9NNPQojk5OR+/fq1bt36hhtu8Hq9QghN06SUiqK4XK5evXqNHTs2PDz8+uuvLygo2LJli9VqLenA7l27Zr7yyjfffFNUVJSYmNilS5dBgwbZ7faxY8cePHjw7bffLt3bMWPGzJkzR9d1KaWu60FBQcOfeOKhgQP/3nOgDIQUAAAAAIBz8Hg8brfb5/MpSvkiCiEMQ7jd7uLi4jJCCkM3iouLu3frNm36dJfLJYRQVTUuNtZqtT7wwAM33HBDt27d9u3bN2nSpIcHDhz8yCN33H671WbbsmXLY489Nnny5FatWnk8ntDQ0E0bN0ZGRn700UdxcXGaphmGERYWVrI7a9as+eqrrzp16iSE8HiKnU6Xv/Xjx48/+OCDjzzyiK7r27dvnzVr1q233jpr1qz27dsbhnHkyJGnn366d+/eXq/HMISiKMEhIYVFRcXFxb169ZowYcLRo0d//eWXGS+88MEHH3z44Yf+dOMUZotl+/Zfe/V6oG7durNnz46Li/388y8mTJiwffv2adOmCSFOnDjZvn37f//735GRkbt37Rr2xBOjR49+8cUXt2zZ8vjjjzdv3nzChAmGYfzwww9erzc+Pn7D+vVSUXJycsaMGZOYmPj888/n5+cHBQWFh4cvW/ZRREREcHDwsmXLevbs6e/A999/N2jQ4KSkpClTpjRITf0jM3PBggUff/zxvffe4x8yc0qHXS7X1Vdf/frrr5tMJiGElNKfmFS4c4cUPp/36NHckydPappmtVoSExMdjiAhhP+xycvLM5lM8fHxF6l/AAAAAIArjSH+PPmPiIiIiIgo2d6iRYu+ffuOGTMmJSXlmWeeSU1NHfzII0KIpORkIUR0dLSqqlFRUdHR0X/VY5hMpuTk5MjIyFOasNvtt9566/jx4/0hxf+0bhghISEJCQlms7lmzZotWrR44IEHJk+e3L59e0VRdF2PjY0paaKElDLkL7Vr1+54ww1t27adPHnyrFmz/Cf2pZlMprFjx9lsttmz34iKihZCPPzwww6HY8yYMenp6enp6YZhBAcHJyQkREZGxsXFdejQYdeunUKIjIyM4uLiAQMGpKamCiEaNGjgr9Cf+EgpbTZbUFCQvxv+mxYsWNi9e3eHw7FgwQJ/SFFQUPDaa6/Hxsa+8cYbiYmJQohatWu3a9fO6XRqmn62B8VutycmJp6+LxXr3LVnZmZNmTJl8+bNPp/PZDJ17NhhxIgRUVHRv/zyy/Dhww8dOiSE6NSp08iRI+Pi4i5qXwEAAAAAVwL/NQWZf/yxfv364mK3ruvh4RGpqakOh+Opp576/vvv+/btc+LEyRUrVpyrHsXpdK5ZsyYqKkrXNa/Xd01aWkxsrL+Jx/71r1u6dVswf/4D//xnGZVER0fffffdkyZN2rFjR3Jysslk+vnnX7799lufz+ePEpo1a3b6vUJCQtLT05ctW6Zp2ukn9vv379+xY0e/fv3CwsJLNjZv3jwsLGzdunXp6emqqmZnZ69bty48PDwrK2vjxo19+vQRQiQmJiqK8tZbb/Xo0SMyMjIpMdHx18UsZ5SRkbFr167nn38+MjJi0qRJe/furVev3t69e7ds2dKnTx9/QlHC4XA4nc6zHEmZl5e3evVqk8mk67rdbk9JSYmKiiqj6b/n3CFFaGhonz59Ro0aFRMd/dNPP93Vs2fDho3uvffexx9/PDo6euHChXv27Bk6dOirr7zy3NixFd4/AAAAAMAVSNf1zT/8MHLkSF3XvV5vkyZNRowYUaNGDSllenr6s88+e//999eoUaPsSlRVzcrKmjp1qtlsNgyjsLBw2rRpN9xwgxDCMIzYuLgBAwb85+WX77//finLWvsyMTHR6XQeP368evVqVqv1ww8/3Lx5s6HrhhC1a9d+6623zniv5OTkEydO6PoZxiYcPXrE6XSeMjDBPwIiNzdXCGE2mX755ZfJkyebTKaTJ0+GhIQ0adJECNGsadOnRoyY+cora9asiY6OrlevXt++fdPS0qQ882U48+bNa9++fVxcnMNh79at2+zZsydPnpyfn69p2umjS8ogpdy3b99zzz0npdQ0LSEh4YknnqiakCIyMrJ58+b+/zdv0SI8PPzkyZP79u3bsWPHmjWrY2JiYmJi7rzzzlWrVh0+fDg+Pv5s9ZztkAEAAAAA8D8MQ1XVbt26vfrqq8XFxUIYUir+STQzMzPffPPNG2+8ce3atb/99lvdunXLqMbn89WpU2fx4sWJiYn+OSksFnPJrWaz+f777luyZMnMV14JKnM8QkFBgdlsttvthiGczqLhw4cPGDDA4/GIMk91T548abPZzlggKCjYbDYXFBT4Z/r0b/R4PMXFxf4pOYs9no4dO06ZMiUmJubIkSMTJkx46KGHvv7669DQ0B533XVLt2579uzZtm3bnDlztm7d+vHHy8LDI05vRdO0L774Ijw8/LVXX5WKcvDgwd27d0+ePNnfq7MNmjgjXdevvfbaRYsWlaQqZvNFue6jrKyohM/nW7Lk3ccee+zuu++++uqrb7/99l27dpnN5pSU+v4CycnJXq83Ozu7jEou9oUrQOCTikJahytcyWcwcMXyvwokrwVc8cr+1RqBQFGUilhs9G8yhJBS+s8irVar1WqzWCz+79IjR46sWbPmrFmzGjZs+OSTT55zSVRFURwOu8lkslqtNptNUdSSm3Rdj4mN7d+//6JFi3bv3l36pLX09/bCwsIvvvg8Pj6+fv36Pp/XMITVapVSWq1Wq9VqsVjO1vTatWsbN26squrpN9WpUychIWHlys8KCwtLNh44cODo0aPXXHONEMIwDJPJZLNazWZzUlJS7969s7Kytm/f7i9pt9vT0tJ69+49ceLEvXv3Hjt2/IwdWLFihaZpNpvtp59/3rp1q6qqZrP5ww8/qFevXrVq1X788cfi4uKyj15pqqpaSyl9JEtT/vfVfaFnQOcbHEip+Hy+/Px8q9Wq67rT6Sx9oP2Pij9GKuHz+d58881PPvlEVVVFUbZu3XrDDTds2bLF4/EIUXVPdqBqSCGEy+V0udwbNmwQQvAqwBVJer3e4mL3+vXrpZS8CnBFkrqu+3y+jRs3KorCqwBXJGkYhtvt3rZtm9ls5lUQsAxDSCkjIyMLCwv9K3oWFRWd8bKFv1u/UVRUdPbngCwuLvb5fF6v1zAM/0oThmEEBQXNmjVry5Yts2bNCg4OGj58+AMPPPDSSy8NGTKkoKDAarU6nU5d110ul8fj8Xg8UkqXy6XremFhUUhIqKZp4s+Tf9XlchmGUVBQIKXs0KHDBx98MH/+/BYtWhQWFkZERGia5vF4nE6nlOL33w++8847n322cujQoUFBQUePHtV13e12+Xy+v06BDUVRiwoL/R0WQhw/fjwjI2P+/Pnbt29/+eWXi91u/2CQ0jtosVj69ev39NNPT58+vW/fvhEREZs2bRo7dmz9+vX9E3n6a3O6nA53UE5OzltvvWWxWOLj47dt27ZmzZpOnTolJSU5nUUff/yxzWbTNK2oqEhRZFFRUUk3hGEsXbo0NTX1ueeei4iIMHTd5XZPnDhx3rz5t99+x5133jllypRnnnmmT58+SUlJR48e/fzzzxMTE9u1a+f1eouLi4uKik6ePCmEkFJGRET4fF6fz+d0OkuiHP+Cr6UiCOnxeNwu148//vjXIrXSarXm5OQ0btz4/J8b5xVSmEymu+66q0ePHsePH+/du/err77avHlz/xwh/lDE/6Sx222l76UoSsOGDTVNUxTFbDafOHHCYrHExcX5n2fn30Xg8iClPHbsmKYdi4+P5yWAK5MUwulyFRQUlHFtIHDZ0zQtLy8vNjb2jD+sAVeI48eORUdH2Wz2qu4IylLsdvtP5fwhhaqqFTgmWEphMqkWi/ls34sNQy8sLPzyyy+3bPlR03T//JRdunR55513Bg0a5J+RIC0tbfjw4RMmTEhLS+vYoYOQsuQSBovF4j9dtVgs+/bt+8c//uHf4na7e/bsOWTIECllUVGhf++qV6/eq1ev5cuXSyn9493sdvusWbOWL19uNputVmt4ePi///3vu+66yzAMRVEcDsfEiZPmzJnr/1Zvt9vfeOONoKAgl8s1d+7ctWvX+jeGhYW99NJLXbt2PeNIUrfb3aNHD0VRFixYsHLlSsMwzGZz48aNhwwZUjKZ5fLly7dv3242m00mk6Io48aNq1Wr1qZNm7744ov33nvP4/Goqmqz2caPH5+UlKT+pbi42J+ebNm6dePGjaNGjapevbrP5xNCBIeEdOnSZeDAgZs2berbp4/JpC5ZsrR3794mkyk0NLRateQWLVqYTKqiyDVr1rRp00bTNF3X/cuCGIZYt25dx44dpZT+43D//fcPGTKk9FgMXddVkyk6Jsb/GSeltFmtdrv9gk5/5IWeLA0ePPjQoUMTJ07s2LHjp59+2rRpUyHEc889t2nTpgULFpQx8cbw4cMNw/Cv+ApcmTIzMw8ePNiqVauq7ghQZQoKCtavX5+enl7VHQGqjKZpK1eu7Ny5MyEFrmRffPFFy5YtS9ZHRGDKy8sryM+vXqOG/xzb4/EsXbr02LFjilLerMJ/ucR9994bFBx89jLG3r17c3JyvF6vlMIwhMlkiouLczqdKSkpJfNHuN2uX3/dXqNG9ZiYWCFEUVHR3r1769SpU/LsKijI/+mnn30+n/83f03Tq1evXrdOnZP5+fv372/SpIl/7woLC7dv3x4eHl6nTh2TybRz584jR47oui6lDAoKiouLq1atmv8Xeq/Xu2/fb9nZhw3D+Ktj6nXXNbVarfv27Tt8+LCmaaqqBgUFJSQkJCTEn+2aiIKCApvNZjab9+/fn52d7fV6Q0NDa9asWXJO/fvvv/9x8KDX5zMMw2KxxMbG1q1bV1EUj8eT+ccfubm5LrfbZDLFxcXWrFmrZHSD1+vNyDhgsVhr1Khx8uTJ/fv316ldOzQsrKRdp9O5c+fO2rVrR0REeL3ezMxMf+t2uz0pKSkpKUnX9czMPzIyftc0zb+Dqqo2bdo0Ly/vjz/+KC52i78G2tSoUaN27dqld8rtdmdkZNSuVctitZZs7NOnT4MGDUaMGHGeT49zj6TYvn37hg0bOnXqZLPZ1q5d+8knnzzxxBO1a9du3779yJEjZ86cuWPHjg8//LB3795lTw3q8/n4MMYVztB1xlDgCleBw0SBS5T/VWDouuB7Ea5shsEnQqAzDEOUiiMsFsvN6ekFpSZQKA+73V72wplSypSUlJSUlLLrsdns/h/O/YKCgvwTOpQICQlt06bN6XeMiIi47rrrSv4MDg5u0aJFyZ8NGjRo0KDBGVs0m82pqQ1SU89wa/369evXr192h0v411gVQtSuXfuUU32/GjVqnHHtEovFUrtOndp16pyte/Xq/XnQwsLC/AuClOZwOEp23Gw216pVq1atWqULKIpSvXqN6tVPbdrhcFSrVu3cOyaE8b+X8FzoGdC5Q4ri4uLFixdPmjjRECIhIWHEiBF9+vSxWq0vvPDCsGHDbr75ZpvN1qdPn4EDB15QwwAAAACAS0h0TEx0TExV9+LSs3r16gcffPCUmTinTp3aq1evKuxVwDp3SNGkSZMVK1YYhi6E9E+v6j+4iYmJCxcu1Hw+qUhVNTFhOwAAAAAAp2jatOknn3wsSo1L0TTNf7WFf1FVlHbukEJKebYD55+Wo6K7BAAAAADAZSI4OLhBg4anbCwsLOQy2DNi+AMAAAAA4IwqcEEP/K/Lca46WRHPl/NaghQAAAAAcEVRFMXr9bjcbrudxWIrnj+iuJym1TcMw+l0GoahyHINhiCkAAAAAACcyuFwnDhhys7OttvtTEFY0YziYo+qqiVLh14GfD6f0+kMDQ01lW+ijcvniAAAAAAAKorNZktOTj5x4kRxcbGmaVXdncuKlDI7Ozs0NCQ0NOyyGUyhSBkTHR0eEV7Oiz4IKQAAAABUKimEycSiBpcAi8USGxt72ZxFBw4pZUZGRnBwcHJy8mVzeCtkQgpBSAEAAACgomzbtu3w4cOqWtalAYYhXC7X2rVryy5WsTRNj46Obtq0aaW1eDmpqJNPlCaFkFIRHN7TEFIAAAAAqBiHDh3as2eP2Xz2swxDGELEx8cfPnzY6/VW2tmZz6e5XC5CCiDwEVIAAAAAqBj+iQDLmgvQ+HNRA1VVDcOoxJ+QpaqqldYYgL+NOVoBAAAAAEBAIKQAAAAAAAABgZACAAAAAAAEBEIKAAAAAAAQEAgpAAAAAABAQCCkAAAAAAAAAYGQAgAAAAAABARCCgAAAAAAEBAIKQAAAAAAQEAgpAAAAAAAAAGBkAIAAAAAAAQEQgoAAAAAABAQCCkAAAAAAEBAIKQAAAAAAAABgZACAAAAAAAEBEIKAAAAAAAQEAgpAAAAAABAQCCkAAAAAAAAAYGQAgAAAAAABARCCgAAAAAAEBAIKQAAAAAAQEAgpAAAAAAAAAGBkAIAAAAAAAQEU1V3AAAAAADOxBCargthlL8mTdN0XRdC+P8tPymllLJCqgJQGiEFAAAAgAAkfZpvxIgRPp+v/HUVFxdfddVVBQUFLpezImrzdOzYsXHjxuWvCsApCCkAAAAABCiPx+P1eiukKl3XDcMwjAoYl1FR9QA4HXNSAAAAAACAgEBIAQAAAAAAAgIhBQAAAAAACAiEFAAAAAAAICAQUgAAAAAAgIBASAEAAAAAAAICIQUAAAAAAAgIhBQAAAAAACAgEFIAAAAAAICAQEgBAAAAAAACAiEFAAAAAAAICIQUAAAAAAAgIBBSAAAAAACAgEBIAQAAAAAAAgIhBQAAAAAACAiEFAAAAAAAICAQUgAAAAAAgIBQeSGFrLSWAAAAAADAJYiRFAAAAAAAICAQUgAAAAAAgIBASAEAAAAAAAICIQUAAAAAAAgIhBRA5VFUVUrmkMUVTVVVXgMAAAA4G1NVd+CSoWm+7OzDnGFeEMMw7HZ7VFRUVXfkzA5nZ2u6XmnNSSlzc3PdbvehQ4cMw6i0doHAIYUocjq9Pl9WVlZV96UcDCMhMVFRKibl9/l8hw8H4oeLrutxsbEWq7WqOwIAAK4shBTnq6jI+e6775rN5qruyKXE6/WmpKR07969qjtyZp98+qnT6ayscwPDMERQUFBQUNAvv/wihRCBd04CXGyGYVgslpjo6Pfff08Yl+qrQNO0gQMH2u32CqmtsLAwMD9ciouL77vvvqSkpKruCAAAuLIQUpwvKaXVajWbOWIXQFGUAPzmXcJqsWiaVmlnSYYhTCaToihWq1UKIS7JszOgXPyvAiGlxXIJvwo0Ta/A941A/nBRlEvzEQIAAJcy5qQAAAAAAAABgZACAAAAAAAEBEIKAAAAAAAQEAgpAAAAAABAQCCkAAAAAAAAAYGQAgAAAAAABARCCgAAAAAAEBAIKQAAAAAAQEAgpAAAAAAAAAGBkAIAAAAAAAQEQgoAAAAAABAQCCkAAAAAAEBAIKQAAAAAAAABgZACAAAAAAAEBEIKAAAAAAAQEAgpAAAAAABAQCCkAAAAAAAAAYGQAgAAAAAABARCCgAAAAAAEBAIKQAAAAAAQEAgpAAAAAAAAAGBkAIAAAAAAAQEU1V34EpkGMJsNlssFsMwqrovF5fFolmt1qruxUVnGEJRFLvdfs4H1Gw2q6rqcDgqp2NAAFJVVVGUIIfj0n3703VdCFnVvTiDiv1wMZnMiqKWvx4ACByqogQFBVVMVarJbDZXSFUATkFIUQXMZvPOnTs3bdp02b+1eb3eRo0ahQQHu1yuqu7LqaSieLzeCqlKUZSCgoJFi95W1bJeUJqmpaampqamfvjhhyYTLz1ciQzDiIyM7Nat27x58xTlUh3Kp2lafHx8cHCQoZc7C5DS4ylW1YrJAiwW86+/bv/hhx8q5MPF7XZbLJa6dev6KuKtUkrZuk0bKQMx3AFw5Thy5Mh///tfn89X/qrcbvfx48fz8/OL3e7y16bp+vXXX2+z2cpfFXAZ4EypCphMpuxDh9atW1fVHakMhYWF1113XQCGFIZhWCwWKaUQ5T3NkFK63e41a9aes6TP54uJiVm79twlgctVtWrVOnXqtHr16qruSLncfPPNISEhFTBgwTCElBaLpfxvREIIVTVlZWVV4IdLs2bNCgsLK+LbvCGl0qp1a0IKAFXrcE7O4S++qKjakpKSwsPD3RURUni93iZNmhBSAH6EFLi4FEWxWq2aVgGJ9cVRqUPOzWbzpfvrMVAhrH+Gg5e2v66q0CuovgC99sVkMlksFkUp9+NlCMlbH4DLjqqqFotF17XyVyWlvAw+HIGKwpcGAAAAAAAQEAgpAAAAAABAQCCkAAAAAAAAAYGQAgAAAAAABARCCgAAAAAAEBAIKQAAAAAAQEAgpAAAAAAAAAGBkAIAAAAAAAQEQgoAAAAAABAQCCkAAAAAAEBAIKQAAAAAAAABgZACAAAAAAAEBEIKAAAAAAAQEAgpAAAAAABAQCCkAAAAAAAAAYGQAgAAAAAABARCCgAAAAAAEBAIKQAAAAAAQEAgpAAAAAAAAAGBkAIAAAAAAAQEQgoAAAAAABAQCCkAAAAAAEBAMFV1B3CZk1JaLBafz1vVHbmIFEU1m81V3Qvg0uD1+QzDqOpeBArD+PNNUogKOCYWi0VV1fLXAwDloWmaz+eT8uwljD/f8s5dUkifz1ex3QMQ+C7zkOL99993OZ2izDe/8yGl0HXDZKqYw1Xsdjdv0aJR40ZSVsBIFpvN9t///nfXrl3lr8ovPDx8xIgRFXIWYTKZdu/ePWjQIKvVWv7aApmu61XdhbPq379/vXr1+IyvKoqi5ObmTps2rao7cmaV/PQwDMNms0VFRU2YMEGW+535PNlstmXLlq1Zs6ZymrsgqqoePXr0hRdeqJCgU0rpdrvLXw8AlMcNHTu2bdu27OhBCPHtt9+2adM6ODikzJRWaprmcrkq6nvp3r173nhjdvmrCnBut3vJkiWKEnBD5j0ez0033VStWrWq7ggC3WUeUhQWFjqdRRX0VVhKKSvkxy7dMGw2m8PhqJDa7HZHxf6ML6WMjo42jAo467ZYrL///vuxY8fKXxX+ttDQ0JiYGK/XU9UduUIpiqppWlX34qzCwsJiYqK93koa62QYwmQyqaoaHR0thf9r6kXnsDtsNltltPS3aJqWm5tb1b0AgApjs9vP5z1XUZQgR1BwcHDZxXRdj46KMgyj/B8ZZrMlJyenvLVcCgxdLygoUNWACymKiz38bIbzcZmHFPIvFVRfxQxRllIIYeh6xZy36Lpe4WOndV2vkJBC1/VAHmJwhdD/UtUduWLJQD74uq5rWuU9PQzjz7csXdcrLaTQLsKbJACg/Izz+2r953fdcn9kXEFfh6So0DOgChOQnUIgCriADQAAAAAAXJkIKQAAAAAAQEAgpAAAAAAAAAGBkAIAAAAAAAQEQgoAAAAAABAQCCkAAAAAAEBAOPcSpDmHD7+9aNGGDRuKiopSUlIGDRpUr149IYTL5Ro5cuTOnTt9Pp/P56tVs+bwJ59s1KjRxe8zAAAAAAC4DJ07pNixc+e6devat28fHR29fPny//u//1u0aFG1atU8Hs/333+fkpLSo8edLpc7PDw8Pj6uEnoMAAAAAAAuS+cOKVq0aPH6669HRUWZTKYuXbq0atXq22+/vffee6UQQUFBzZs3v+222yuhowAAAAAA4PJ27pDC4XA4HA7//61Wq6JIu90uhJCK4vF4XnzxxdmzZ9erV3fQoEGdOt34v3c1nE6n210spbTZrC6322azCSG8Xq9hGBW+J6dTVVUIIaUiZSW0VmWklDabLSwszGQ696N5PiwWi5RSiIo5aiaTyWw2h4aGVkhtlzRN06xWq0lVQ0NDzWZz5TRaUFDgf2LIy/tlEMCklIqihISEWCyWqu7LqfxPDyllZT49/G392WSlNCultFgsDofD/+FVfpqmKYpSIe+T/qdHcHCw1WqtkL5VoMLCwgp8ekgpPR6PojATlhBCeL1eIUSxx6NXytchIDAZBtELYgAAIABJREFUhuHxeD0eT9nFdF0TFfeRYTKZLBZLSEhI+avKz8/3f52rkDdJRUqv11shZ0lSSo/HW8kf7udJSunzabqu+3y+qu5L1VMURTcMn89XaWfHVUJKYTZbdF2/oCekvKAjMmrUqNWrV7///vsJCQlut3vRokW1atUKCgpauHDhV199NX36tM6du5QU9nq9o0ePnjt3rv8c6dChQ//85z979erl9XpF5TwMUrrd7sv4IfeTUrpcLk3TKrDCoCBHhRw2Kf8fe/cebVlV34l+zbX24zzqCVVAVfGu4qW81BAUI4oRg2Wba0x8RCKSkdGJw4623fhIxHToMOw22pKQ5F7vzei0aRktoeM1TWLi44qoCbRPiC+QCGLRJQhUQcE5dfbZj7Xm/eMAoRWqTtVetfc853w+fzCoU7t+67fX3mvNNb9r7n3CYDCYn5+voday0Gw0mq3m3N65bITDxuTkZFEUy/5ASFYIoaqqubm5cTfy1Eb/9li4bKqqapRb7Ha7C9PCukxPT4UsDL/XVs7bI4Ss3Z5I7np5TGIW+/1Bs9kIownqIDUhizHr9/uNRmO/9xJjlnXn52sZpUIIZVl2Op06imVZlrXb7WazWdcY2m638zyvYZYUshizZC+/W61WURQjmgymLGQxZoPBIM/zYnkn+CG0Wq33vve9/+Jf/IvLLrtssf9o8cfVH/3RH334wx+++uqrzz///B/7q7m5vW9846VbNm++6g/+4Mn3Sfr9/qDfz0KYmJh461vf2mw2r7rqqqqqRraS4pprrpmbm0svRqzT5OTUVVdd9Y//+I+1pMIxxsnJyfe+970x1jCFaLXaX//61/7kT/7PWnpb6jqdzote9KKf+ZmfueKKK1atWjWaeHtmZuayyy575jOe0R/UOUNj8fK8uP/++9/znvckeBTMzMy8/e1vP+200wajenvEmDUajbVr1+7evXtkKykmJ6euvfbaT37yk3W9BPPz8+973/tWr149/Hky8bfHO97xjlNPPbWGt0fMQp5feumlVlIs6Pf7N9xww8/+7M+ObFUdJOizn/3sT//0T69ds2bfs4KqKv/8w38eYxx+yGg2mt+57bYPfvCDtZxyZ2ZmLr744pe+9MJa4oB+f3Dxxa9fs2ZtLSsp5ubmrrnmmqJI7pTb7fZe/vKXn3jiiTXeXl268jy/6aabjjnmmGOPOWYZL6xbWDR6ySWXnH766e985zsX+a8W9QGBWFX/14c+dM01H3nf+/7jTyYUWZZNTU1v3rz5wV275ubmVq1a9cTPm83mEwNws9lcuDoZ5TVKjDHGakQXwmMSY1xYMTUzM1NLwYVIuJYgKcZYllVWX29L3WAwWLiBPDs7O7KNVlUVs8xKinF54mhK8yhYSI1H9vaI8bG34ijfkDHGhYuhGl+CuvZbjHHhnLDM3x4xy2IsikJIsWDhRW8UxcLnUmFlCiEURZ7v7ygIIdR2Xfr40VfXKbcsyyfGtSHFGPO8tpNkUeSjHNwXL8aY5yF7/FP5hCzL8zzk+bLfHQsH8uIfv/8jod/v/z9/+qcf/ehHf/d3r/i5n7voiZ/Pzs7u2LFj4VC/9dZbv/a1r5144olPTih+XHrHCQAAAJCO/a+kuPHGG9/ylrece+65t9xyy1e/+tXBYHDRRRc9//nPv+uuO//Df/iPxx9/fFEU3/72tzds2PDqV796BB0DAAAAy9L+Q4ojjjjiTW96U7vdvv/++7MsDgaPfd/M5s1bnve85/2v//W/+v3+y172su3btx933HGHvmEAAABgedp/SHH22Wf/8R//8U/+fOPGjW9729sOQUsAAADASuQrrAAAAIAkCCkAAACAJAgpAAAAgCQIKQAAAIAk7P+LM3lcyPM8y+K42/hxeZ6HEGqvGet4onme57kg7J/FWnbrWC2DpzBiMcaVs9P2+0xjfOwxi9gnIYSQ4Cl3wcLJbfgX1kkSYH9izGLM4vADQoxVHf2sLDFmIdQ2CcrzPMtqnrawLAkpFilUVfnwww/XHgcMb3Ki0+/3aywYY3zooYdqmVY1m83Z2dnh66Sv3W6vX79+3zutLMvp6elms3nYYYc1m83RNNbtdhuNRn2T5DA9PV1TqZWiKIq9e/eO8kVfvIW3R331FvX2WJiWr1q1al+FQijLstPppHfGfcyePXsGg8HwR1ae5zMzM4cffngtL0QIodvtPvzww8OXAkhGmJ5eVdd16apVq9auXTsxMTF8tfn5+Xa7vezvQ4QQer3e3r17a5kEdbvdmZmZbrc7GNQxeYnZ1PR0grMzhiekWJQ8z3fv3nX55e8ZdyOjsGfPnne9613j7mKJ2bBhw/ve975er/u0j4hZzLJ2u91utd7//vdnWTaqM2oYDAb9fr+GzcUshOziiy924/dAPfroo1NTU81mgufbWt8eeVjM22N2dvZ/3nzzq171qn0/7L777vvLv/zLdrs1dGeHxJVXXllXqWOOOebqq6/udueHLzUxMfmJT3zi2muvHb4UQCLyPP+VX/mVuqrdd++9mzZtqmlwCWVZzs/PL+85crvd/vKXv/zhD3+4roL33nvvc57znH1dMy9aVcXf+I3faLUSvVRgGAleNMOS1O/3972kJcasKIpms9nv90M20sVuy3v4XApiv99P9pMLI357lGWZ6I4Ykxjjfs8ei1QUjbIsh68DsFxVMfb7/TyvbeRziXWg8jxvNBpVVcNoVVUuKJYtd0QBAACAJAgpAAAAgCQIKQAAAIAkCCkAAACAJAgpAAAAgCQIKQAAAIAkCCkAAACAJAgpAAAAgCQIKQAAAIAkCCkAAACAJAgpAAAAgCQIKQAAAIAkCCkAAACAJAgpAAAAgCQIKQAAAIAkCCkAAACAJAgpAAAAgCQIKQAAAIAkCCkAAACAJAgpAAAAgCQIKQAAAIAkCCkAAACAJDTG3QDwY0JZlmVZhhDG3cmPiSHkWRbH3cbSE2PW7/fH3cWhtvD2qK9cjP1+P89rqNlo9KuqGr4OADxJnRds/X4/i7VdYsWY9fu9qqphopfn/bIsh6/DUwp53miYjz8FO2U8jjvuuG3btg0Gg+FLNRqNb3/72/fff//wpRZMT0+fc845sb4T5bIXY1y1alVV0xm8LMsNGzZs3ry5roJ1CiG96GQJaLVaZ599dlHHfDtptb49pqenn/WsZzWKYvhSE5OTd9555+zsbLvdHr5avWKMq1evXhHXfzHefvvty/4EUlXVySef3Gq1xt0ILB8xxttvv72WUnmeP/TQQ0UdI0uWZWVZbt68ecOGDbVcsJVV1apvkGo0GmeddXZexym31W7Pzc3dcccdExMTw1fr9/uHH354XaNeCOGOO75bFEt1PhtCmJ2d3bFjx549e/Y986qq6pRTTmk2myPrbeyW6ou61J1yyim//uu/vnfv3uFLTU9P/97v/V6NIUWr1fq1X/s1Nx4XL4SsqmKn06nl8nthzPuZn/mZGmqRhsnJyQsuuGDcXSwxa9euffGLX1xXtTzPt23bluDoXu/ZI10hq2K84YYbxt3HIdfv948++mghBdQoVtUNN9wQY5Vlw54oY4x5nrdarVqWhQ4Gg61bt55xxhnDl6pdq9V60YteVFe1jRs3Tk9P13JmCyF0u93BYFDLqBdCuPHGz2dZHP69MQ6xquKRRx55z44de+fm9h3i9/v9Y489NsHLmENHSDEeg8Fgbm5vpzNXS7XaA4W5ubkYhRQHZpnPMWAp6/V6c3NzrVaio/tKOHuEkLXby3/qnuf5sl8tAqMWQrvVijHWNw+1WPjAlOVgbm6uLGtYAL6gvtNkXMIjS8xiluV53mg22+32vvfJChxclvvyYwAAAGCJEFIAAAAASRBSAAAAAEkQUgAAAABJEFIAAAAASRBSAAAAAEkQUgAAAABJEFIAAAAASRBSAAAAAEkQUgAAAABJEFIAAAAASRBSAAAAAEkQUgAAAABJEFIAAAAASRBSAAAAAEkQUgAAAABJEFIAAAAASRBSAAAAAEkQUgAAAABJEFIAAAAASRBSAAAAAEkQUgAAAABJaIy7AZazGLNGo9Fut2OMw1cLIXS73cFgEMLwxbIsC91uN8tiltVTbn/iwt6oqqrb7YYsy57mafR6vcFgMJKWYKUYDAbz8/O1nIiyLIsxttvtEEKWDVswxizP88nJyVp6m5qabLVaw9d5wsTExPTUVK/fr7Hm8tZsDvJFDFHNZjOE0Gg2R9AS8IQYs6IoJiYmajnlFkWjuTKO4rKs5ufnx93FU4qtVruWeUG9w/Hit1oURavVyvP9rBtotcpQ0/xnqRBScAg1m81/+qd/uv7669vt9vDVut3uy172sjPOOKPf7w1frSzL7du31zVQLUYIYfeuXbt37z7//POrqnq6h8WqWr1mzWhaghXizDPPPO644/Z7EbBIeZ5/+tOf7vV6w18w5Hn+8MMP/+Ef/mEtV7plWR533HGXXXbZoI5YodFsfvGLX7z++uvr2m8rQa/XK4riiCOOqMpyHw+LWRwMyk984m/C06fkMctardZLX/rSQ9AmrFCNRmPHjh0f+9jHaslz5+fnv//977/4xS/u1jGBH5TlhRdeODU1NXyp2h177LGvfe1rExwLQgif+tSnarl/WRTFAw888N/+238bZfDU7/d/9Vd/9ZZbbvnWt75VFMW+H9loNDYcfvg+ZhCLFLNsot1+yYUXDlnnUBNScAjleT4zM3PHHXfUVfC8886r8RS5ZcvmycmRDgYhhL1zc1u2bBnlRoF169atW7euxoJFUc+JKITQ6/Vuv/32WqplWXb00Uf/1E/91Nzc3uFLTU5OffKTn7ztttuGL7Wi3H333XNzc1W1r5AihPyoo4685557Y1U9XUwRYzY5OXlIWoSVKs/zvXv3fve7362r4F133bV169b5+c7wpfr9QbILaaenp6enp8fdxVOra16wsF67xuF4kWZnZ3fu3Pmd73xnv4+8++67Z2dn9z24LEaMMdlX88mEFDA6VVmOdBUZsMJUVdXr9fq1rKRo9J2vDkJRFI1Go6r2dV8vZCHLQlEU2dOnXTFmjca+bqwBY5fneaPRaDRqmE853a5MeR72vYbiCY3G/geXxYgxFsUSSACSW7cDAAAArExCCgAAACAJQgoAAAAgCUIKAAAAIAlCCgAAACAJQgoAAAAgCUIKAAAAIAlCCgAAACAJQgoAAAAgCUIKAAAAIAlCCgAAACAJQgoAAAAgCUIKAAAAIAlCCgAAACAJQgoAAAAgCUIKAAAAIAlCCgAAACAJQgoAAAAgCUIKAAAAIAlCCgAAACAJQgoAAAAgCUIKAAAAIAmNcTewhIQsy4qiGL5QWZZZlmVx+EqPCaG23qqqGr7IoRMfV0+pKi78z/DVssdfBYCDUNfgUu+JqMbBZYV4bHwHYGka2ZBXVVWMMcvCYobasiwXpqIrxzIPKS6++OJa6oQQHn3kkampqWazhj0WY5bn+VynM3ypLMs6nc6b3vSmqqrquzQNdc3ba3fdddd97GMfq6XU7Oxst9tdu3ZtjMPmMlUV16xZ87rXva6WxoD0/cqvvKGWOnmeP/zww6tXr65xcOnUN7j8q3/15qqKAtjFizFrNBqJx/0Ay8Yb3/jGWurkef7ggw+uX7++1WrWUnD/YlbFuHHjxmOOOfoXf/EX9z3UrsDBZZmHFDWGYUXjMXUVrG8pRSyKvCjq/eROoiFFXRffC8qyLMuylpBiRZ01gDoHl6JIeHCxiuLgJDqGAiwzaQ/H+xSzhXUUeV40Go3F3Q9YQYOL76QAAAAAkiCkAAAAAJIgpAAAAACSIKQAAAAAkiCkAAAAAJIgpAAAAACSIKQAAAAAkiCkAAAAAJIgpAAAAACSIKQAAAAAkiCkAAAAAJIgpAAAAACSIKQAAAAAkiCkAAAAAJIgpAAAAACSIKQAAAAAkiCkAAAAAJIgpAAAAACSIKQAAAAAkiCkAAAAAJIgpAAAAACSIKQAAAAAkiCkAAAAAJLQGHcDS0aMcTAYhDDuPkYhNBqNLIvjbgNg+VtJgwuPCSEsvO77GGpjzAaDcpRdQarioBzEWMN1achCVVXD12GZioPBIM9HNR7HrIoxxlhV5SgvA2KMZTkY0caGIKRYrGazefLJJxV5Me5GDrEQqqrasWOHK2aAEWi1WieddFKjWO6DC08IWYxxfr67devWEJ42pohZ1mq1RtsZpCls3botqyOkaDSbg7I8/ZnPbE9MDF+t1+tt2LChLIWJy0Sr1T755JNHNxyHLItZt9dbvXr1Y7eHR3KDOGZZu90exZaGI6RYrMnJye3bXz7uLkah1+v92Z/9WZBSABx6U1NTL3/5ihhceLK/+7u/u+iii8bdBSwBeZ7/3M/9XF3VnvnMZ7bb7WazOXypEEKv1+v1ei6Zl4fVq1ePfji++eabTzjhhE2bNo14u+kTUgAAjE6/348xDvr9Rh0zJWDxyrLcu3dvu13bMiUJBcOIVTUYLIEPX4yeL84EAAAAkiCkAAAAAJIgpAAAAACSIKQAAAAAkiCkAAAAAJKw/9/uUVXV/Px8t9utqqrZbK5atSrPH4s2Yoxzc3Pz8/NFUUxPT9fy63wAAACAlWn/Kym++93bf+3Xfu2FL3zheeedt3379uuu+4t+v7/wV7fddturX/3qc8455/nPf/7VV189Nzd3iLsFAAAAlq39hxQzM7Pbtm376Ec/+j9vvvk1r3nNO97xzltvvTXLspmZmbe97W2rVq36h3/4+yuuuOLP//zPr7322kPfMAAAALA87T+kOPfcc6+88srTTz/9sMMPf+tb33rYYYfdfvvtWZbdeeedt99++3vf+97Nm7e8+tWvvuCCC2644YZHHnnkaQuFUGPfAAAAwDKz/++keLIvfelLnU5n27ZtWZZ94xvfmJqaOumkkxb+6sQTT7zrrrsefPDBtWvXPvWWGo2qqoZsl9GIMcZYT50aqhwy8XG11FnMI0OeB2kdK9sT32oEK9bCURAcC6x4IYzhKKjl2q92CbbEKISQ5ytianCgM6ADCCnuvvvuf/fv/t1FF1101llnZVk2Ozv75G/KnJqaqqqq1+s98ZOyLP/qr/7qxhtvLIqiKIrPfe5z55577u233/7kx5CgsiyfLmk6UEVRnHLKKZdeemmjcWBx2AhUVXXEEUe0Wq1aRoVWq/Wtb31r3zFcyLKZ2dnZmZlvfvObhiJWrF6v1+v1vvGNb4y7ERibqqrKsvzmN78ps2Ml6/V63/3ud1ut1si2GEKYnZ097LDDEjz0YqzuuOOOUe4Nxi6EMDMz84Mf7Ni9a/fynhi02+1du3YVRbH4f7LYqePdd3//3/7byzZt2vQ7v/M7q1atyrI4PT39xDdoZlnW6XRCCD/2Cz7a7fbq1avzPG80Gq1WK8/zZrMpK0xcnud1vUIxxrIsO51OmiFFVVU1punNZnM/IUXI8jwPed5sNh0DrFhlWWZZ1mw2smxF3DqAn7RwFDQajQO6YoNlJcYsyxpFMcpfDpjnoSiKqqoSXNZaVXFhuuQSceUIIQshFEXRbDWX8cu+EBEcaDK4qKnj3Xfffdllb1+1atX73ve+I444YmFzZ5xxRqfTufv73z/hxBOzLPvBD36wbt26jRs3PvGviqJ4xSte8YpXvGLhj/Pz81VVLXxUhJT1er2///u/r2XpUavVvvPOO6+77rrhSx0KZ5999tq1a2Mc9lNIVRXXrl176qmn7veRO3fuvOeee0477bQhtwhL18zMzK5du57xjGeOuxEYm7Is77nnnmc84xlCClaynT/84baTTlq9evUoN/rDH/7wS1/6Urud3IKFfn+wdevWNWvWjLsRRuqhhx4+5pijt2w5etyNHHKHHXbYQkC/SPuPNHbs2PH2t7+9KIorrrjiqKOO6na7Cxs4+eSTTzrppPf8zu888MAD119//Q033PCiF75w3bp1T1dnMBgsvi3GK9Rn3E9lX2p8mot8prGqBOSscL6cCBaOguhYYMUb/kbRQaj38q9Go98VjF+MVbUipgYHOgPa/0qKr371qx//+MePOOKIiy66KMbY6/V++7d/69d//TfWrFlz1VVXvetd7zrvvPPa7fbrX//611988b5bO6DOAAAAgBVl/yHFy1/+8h/u3BnyfGEBRYxx3bp1RZFnWXbWWWddd911c3N7i6Kxbt26drt9yPsFAAAAlqn9hxSTk5OTW7Y85V+FENatW7ePj3gAAAAALFJyv4AHAAAAWJmEFAAAAEAShBQAAABAEoQUAAAAQBKEFAAAAEAS9v/bPeoSs6woipFtDgAA4AlVVXW73XF38RT6/X6McdxdQCpGF1I0Go3vf/+uL37xi/1+P8schMkKVVWFEGqpNRgMjj322Evf+MaiMbp32iJVVTU5OWk8AABYITYcfvjP//wr8jy5+6ZVVU1NTY27C0jF6KaORZHv3v3Q7bff3u/3R7ZRDlzMstBsNmsJksqyPPzww1/4ohclGUuFbrebxZjVE8gAAJC0yampU045ddxdAPsxwo97xCzP82azufCnkW2Xg1LPCxRCVlVlt1vWUu2QkFAAAAAkwxdnAgAAAEkQUgAAAABJEFIAAAAASRBSAAAAAEkQUgAAAABJEFIAAAAASRBSAAAAAEkQUgAAAABJEFIAAAAASRBSAAAAAEkQUgAAAABJEFIAAAAASRBSAAAAAEkQUgAAAABJEFIAAAAASRBSAAAAAEkQUgAAAABJEFIAAAAASRBSAAAAAEkQUgAAAABJEFIAAAAASRBSAAAAAElojLuB/02MWVEUeZ5nWayjXhgMBlmMWRi6UsyyEBqNRk2NcXBCWZZVVYXhX9Asy7JQVVUtL2hVxaqqhq8DAACwwqUVUkxNTX3kIx/5yle+0m63h682GAze/e53r127NsZhJ5B5ke/atfv3f//3m83m8I1xcGZnZ9/whjc873nP6/W6w1cry/KXf/mXp6YmYw0xRQzBoiQAAIBhpRVShBC63e7MzMzMzEwtBWMdE9Asy7IsxFg98sgjNVXjIA0Gg1DTOoosyyYm2u32RF3VAAAAGJLbvwAAAEAShBQAAABAEoQUAAAAQBKEFAAAAEAShBQAAABAEoQUAAAAQBKEFAAAAEAShBQAAABAEoQUAAAAQBKEFAAAAEAShBQAAABAEoQUAAAAQBKEFAAAAEAShBQAAABAEoQUAAAAQBKEFAAAAEAShBQAAABAEoQUAAAAQBKEFAAAAEAShBQAAABAEoQUAAAAQBKEFAAAAEASGuNu4NAqiqIoihjDkHXyvMjzopaWAAAAgKe0zEOK+++/f25uLsY4ZJ08zx966KFaWgIAAACe0jIPKT7wgQ+MuwUAAABgUXwnBQAAAJAEIQUAAACQBCEFAAAAkAQhBQAAAJAEIQUAAACQBCEFAAAAkAQhBQAAAJAEIQUAAACQBCEFAAAAkAQhBQAAAJAEIQUAAACQBCEFAAAAkAQhBQAAAJAEIQUAAACQBCEFAAAAkAQhBQAAAJAEIQUAAACQBCEFAAAAkAQhBQAAAJAEIQUAAACQBCEFAAAAkAQhBQAAAJAEIQUAAACQhPy///f//q1vfWvcbQAAAAArXeOqq6665JJLzjjjjHF3srJs3br1tNNOGwwG425kKen1eps2bSpLOw04MD/84Q9/9KMfFUUx7kYOrbIsjzrqqC1btoy7EQCAg9e4+uqrN2/ePO42VpytW7deeumle/fuHXcjS0kIodvt9vuDEMbdCrCk3HXXXV/+8pfb7fa4Gzm0er3uT5/z00IKAGBJa5x77rnj7mElGgwGc3N7O525cTey9EgogAPVaDQmJiZarea4Gzm0QgiNRmPcXQAADMUXZwIAAABJEFIAAAAASRBSAAAAAEkQUgAAAABJEFIAAAAASRBSAAAAAEkQUgAAAABJEFIAAAAASRBSAAAAAEkQUgAAAABJEFIAAAAASRBSAAAAAEkQUgAAAABJEFIAAAAASRBSAAAAAEkQUgAAAABJEFIAAAAASRBSAAAAAEkQUgAAAABJEFIAAAAASRBSAAAAAEkQUgAAAABJaIy7AYYX+v1+VVUhhHF3spSU5SDGcTcBLEExZpOTkyHLUjuFFEWj2WqOuwsAgKEs85DiN3/zN1etWhWHnozmeb5nz54PfehDtXRVr16vd8EFFxx11FFlWY67l6UlTkxMjLsHYOkpiuIP/uCqublOatFwt9u94IILXvvah+bm5sbdy5LR7/ef85znbNu2bdyNAACPWeYhxQknnLBu3boYqyHr5HnxwAMP1NJS7WKM69et27Bhw7gbAVgRQgg//OG9u3btGncjT2Hnzp333XdfpyOkWKxut3fqqaeMuwsA4J8t85BiMBgMBoM6QopYloNaWgKAQySEUBRFURTjbmTJKIoiBN/PBQAJMTADAAAASRBSAAAAAEkQUgAAAABJEFIAAAAASRBSAAAAAEkQUgAAAABJ2P+vIJ2fn7/pppu+8IUv/OhHP9q+ffv27dtbrVaM1X/9rx+56aabut1uVVWrVq265JJLzjvvvBF0DAAAACxL+w8pZmZmvvzlL913332f//znp6amLrzwwlarVVXxb//2E3ff/YOLL7641+tNTU2tX79+BO0CAAAAy9X+Q4p1a9deeumvbtiw4Zd/+ZcHg0EIYeHnU1PTz33uc//Nv/k3i9zSE/8QAAAA4CftP6RotlqbN2/OsqzR+N8ePBgM/uZv/uYf//EfjzrqqEsuueTnf/7nf/LfluWgqmIIWaPRHAwGi+gn5iFkWTY1NbW4/vdlbm6u1mCkzsbyPI9x+EqPqWLMsqyqqtoqcgjkeahijF4sVrAQHnvzj/IQyPM81njCfbxmq9X6sWFx7BYGl3F3sfSM/rS8sK2yqnJjAStYjLGqYqyqmk/QsETkeR4fG4OW83EQQgghZDEe0MQ8LP7S7bWvfe3GjRvf//73T01ZTqRRAAAgAElEQVRNVVV1zTXXNBqNI4888oYbbvgf/+N/vOtd77r00kuf/Ph+v3/FFVf8l//yXxYu43bu3Pn617/+da97Xb/ff7qNhhA6nU6/3z+AZ7BPq1atyvMw/NVpCKGqqtnZ2TqayrIsa7VaExMTdV03t9vtoiiyuq/CqV1ZlmVVNZvNELLMy8WKVMXY7/dbrdbojoIQ+r1ef1FB+SLrhZmZmdqDj1rUO7isEK1ms9FsjnIMjVns9fqtVjNkFpmyIoUsxqzX6zWbzdxSa1amkMWY9fv9osiLvBh3N4dSCK1W673vfe/LX/7yyy67bJH/6CDvAuV5/oY3vGEhF/nZn/3Zsiw/9rGPvfKV/8e6df/8zRTNRuNd73rXW97ylhBCu92+/PLLv/e97+3evbvf7z/dlenk5NRHPvKRr33ta81m8+Aae7KyLH/7t3977dq1MQ57pyLP8127dr///e+v5b5Zr9d7/vOf/7rXva7TmaujWn/79u1HH310WZbDV+PQCSHs3Lnz3nvvPffcn17GcSns26OPPnrrrbe+8IXnZ6OanrVarZtvvvkb3/hGq1XDyJJlWVE0rrzyyr1796b2McZer3f++ee/+tW/1Ol0xt3LktHr9Z73vPPOOuusGm+Q7Fe/3//iF77wghecX8vVDixJMX7hC1941rOfvWbNmnG3AuORh/ClL3/56C1bthx99DK+uxBC1m5PfPjDHz6gueqBTbmffD32xJrSEMKJJ574la985aGHHn5ySJGFsGbNmidOPatXr64e93QhRYyx0+k8/PDDB9TVPpRlWVXV8CFFloWyHDz00EM19JRlWZZ1Op0Yq1oWl5Zl2Wo+ZvhqHFKtZjPP81arPe5GYGy63W4IYWJicpQbzfP88dGnBiFUs7Ozu3btqqVavTqdTlVFHyhbvLKsGo1GURRFMbobWUVRZCFMTkw0DNysYCHPJybaExMT424ExqbI82ar1W4v/6lBURQHFMQs8sOrj1Wsqsc/UV+WDzzwwEIc8sgjj9xyy9fXrllz+OGH7avE8s2HAAAAgOHtfyVFv9+/8cYbv/Wtb9155507d+784Ac/eOaZZ77gBS94xzveceaZZ05NTX3jG9+45ZZbf+u3fmvt2nUj6BgAAABYlvYfUpRleeedd376058+6aSTqqr66le/WhTFi1/84pNOOumWW26Zn58//vjj/uRP/uS5z33uCNoFAAAAlqv9hxQTExNvfvOb3/zmN//Yz9/znvccmpYAAACAlcgvVAcAAACSIKQAAAAAkiCkAAAAAJIgpAAAAACSIKQAAAAAkrD/3+5B+sqqyrKsLMtxN3LI5XkeQhh3FwC1yfN8enq6llIzMzNFUdRSqn4x6w8G427iKfT7/cFgkNU3hhZFnmXGKQA4eEKKJa/dbn3yk3837i5GodvtXXTRz5188injbgSgNps3b77yyiu73fm6CnY6c3WVqk8oq/Id73jH/HxtT7NGr3nNa7Zv3z4/3xm+VL8/eMMb3rB27drhSwHAiuXjHgAAAEAShBQAAABAEoQUAAAAQBKEFAAAAEAShBQAAABAEoQUAAAAQBKEFAAAAEAShBQAAABAEoQUAAAAQBKEFAAAAEAShBQAAABAEoQUAAAAQBKEFAAAAEAShBQAAABAEoQUAAAAQBKEFAAAAEAShBQAAABAEoQUAAAAQBKEFAAAAEAShBQAAABAEoQUAAAAQBKEFAAAAEAShBQAAABAEhrjbuDQarVarVYrxmrIOnleNJutWlpaCkKr1cqyOO42flyMWZ4X4+4CIFmhqqqyLEOooVaMWaPRCCEkOBwAAMvYMg8pvvOdb09Prxo+pMiy0Ol0Tj/99KKoYZLc7/ePPPLIshy+q0MhlGV566231nKNW6/5+e5xxx23atWqXq83fLUY49FHH13LCwqsKDHGrVu3bt68OQx9oqyqat26dVVVz3BQVdWaNWvWr18f6ygY8vz+++/vdrsJDgcAwDK2zEOK//yf/6yuUlu2bPngBz/Y7XaHLxVC6Pf78/PzaV759fu9P/7jPx53F0+t0+ncc8+ObreGkKIsB7/xG2+ampoavhSwopRl+eY3v7mWBQYhZFUVO51OLcPBYDA44fjjz3v+82uolWVZll1//fU7d+5sNIS5AMDoLPOQokYxxrm5uV6vhpBiQZoJReIajUa7PVFLqbJseAmAgxBC1unM1VsQAIAFvjgTAAAASIKQAgAAAEiCkAIAAABIgpACAAAASIKQAgAAAEiCkAIAAABIgpACAAAASIKQAgAAAEiCkAIAAABIgpACAAAASIKQAgAAAEiCkAIAAABIgpACAAAASIKQAgAAAEiCkAIAAABIgpACAAAASIKQAgAAAEiCkAIAAABIgpACAAAASIKQAgAAAEiCkAIAAABIgpACAAAASIKQAgAAAEhCY2RbCiGUZdntdvv9/tM9Js+LsixH1tL4hLIs+/1+CGHcnTyFbrc37hYA0hVjNjU1FbIsDl0qhKyqYqfTSXI0AAAYg9GFFP1+f9u2ba985Sv7/X6MT31pNzExMRgMzjjjjFarNbLGFiPG2Gq19hGvHJDBYHDiiSecddbZdRWsUQhZt9vbsWNHnie3yqYsy2OPPTbBnZa4d7+7c+utsdmsoVSeZx/72FRjdKcNSFFRFP/3hz7UmZ8fPmiuqmrdunWXXPIGZ7YDcvzxx7/qVa/q9WqI1Muy3LJlSy2lAIBajG62sXAptmnTpn0/7JnPfGZRFM1matOgEGPs9Xq13OyqqmrVqtWbN2+uodYh0O/3n/3sZ+d5gvf1wmAwKMvSLccD8pWvxBtuGP6Ob5Zl2cREVlUxy7wArGghhO/deeeuXbtqqXb00UfneZFlQooDMD09fc4553Q6c3UUM7IAQFpG+HGPLHu6BRRPVpZlr9eLsRpBSwdqhVzBLMQxSYYUWbZiXgUAnk5VVb1er8blD0YWAEhHckv6AQAAgJVJSAEAAAAkQUgBAAAAJEFIAQAAACRBSAEAAAAkQUgBAAAAJEFIAQAAACRBSAEAAAAkQUgBAAAAJEFIAQAAACRBSAEAAAAkQUgBAAAAJEFIAQAAACRBSAEAAAAkQUgBAAAAJEFIAQAAACRBSAEAAAAkQUgBAAAAJEFIAQAAACRBSAEAAAAkQUgBAAAAJEFIAQAAACShMe4GAGBFC1kWQqihTghZHXUAAMYouZDi/PPPf8ELXjDuLg61mOfprmFptVr/8l/+y3F3MQqNRjHuFkbhE38zOShrm7m0WqZAjMKPfvSjj3/84+12q45ioSzLZrNZR6n63Xffff/6bW+LMQ5f6tFHH92+ffvFF1/c6cwNXy3LQjkYFMUyP092u73zz3/B2Wc/azAY1FJw2e8xADjUkgspjO4paDSSe2Nw0CYmxQosPTHGwWBQFLXlucmuMCjL8pFHHqmrWr/fHwwGdc23s4T3W43yvMgMfACQjHTv5wMAAAAripACAAAASIKQAgAAAEiCkAIAAABIgpACAAAASIKQAgAAAEiCkAIAAABIgpACAAAASIKQAgAAAEiCkAIAAABIgpACAAAASIKQAgAAAEiCkAIAAABIgpACAAAASIKQAgAAAEiCkAIAAABIgpACAAAASIKQAgAAAEiCkAIAAABIgpACAAAASIKQAgAAAEiCkAIAAABIQmPcDQCwguT5qMPxGLOiKPI8z7JYS8GiMHQCABwqrrQAlpJOZ+7RR2dCCONu5GCEEPbu3VuW5YMPPpjF+HSZQVEUe/bsyfN6nmNR5Lt3796zZ09d+UhRFFVV1VJq5QghHHvssbXst7IsjzjiCC8BACxXQgqApeSOO/7ps5/9/9rtiXE3cjBijM1mc8OGDddee20IWZY9dQwRY8zzvNls1bL2od2euPHGGz/zmc8MX4qDFfM8f/e7311LrRBCWZbz8/NLM6kDAPZDSAGwlBRF0Wq1W63muBs5GDFmjUYjhNBqtZ4+o/jnh4+kKUYjzs93aiwnoQCA5coXZwIAAABJEFIAAAAASRBSAAAAAEkQUgAAAABJEFIAAAAASVhsSBFjfMovWo8xPv2vugcAAABYrP2HFI8+8sjVV1/9/PPOW7t23eWXX97pzC38fGZm5q1vfeu2bdtOOeWUK373d2dmHj3ErQIAAADL2f5Div5gsHbt2n/9trc961nPmp2dXVg2UVXV7/37f/8P//APf/EXf/FHV1/9ib/92//0nz54yJsFAAAAlq/Gfh9x+OGHX3rppVmWffzjHy/LcuGHnU7n//34x3//93//nHPOybLsn773vb/6q7+6++67TzjhhEPZLQAAALBs7T+keEp33XVXp9N57rnnLvzxxBNPDCHcc889+wgpikbDt1ewwoU8DyGMuwuWtvi4cTdyMGJc+IajbJT9L9F9ddCW7ttjLMayu/I8z7Is5L68nJUuBEcBK1sIeb4ipgYHOgM6yJDioYceCiGsWbt24Y+Tk5NZlj3xdRULqqr6/Oc///Wvfy3Pi0aj8aUvfen000/fsWNHv993/cQKFEJ4+OGH9+7de+eddzoEODhFUezZs2fNmjVFUYy7l4NUFEWe56ump0d2DLRarTPOOKPZbDYaBznkLRWDweDUU09tt9vC0MVrtyceeeSR73//+0+sFR2Bsiyrsvze9763dA9kGF6/3//BD34wMTEx7kZgPEIIc3Nz9957X6czv4ynBiGEdrv9yCOP5AcSzR/kFdv09HSWZfPz82vXrs2yrN/vZVnWbLae/JgYq507d95yy62NRiPP8wceeGAwGDzyyCO9Xu/gNgpL3dzc3GAw2LNnz7gbYanK87zX67VarQM60SdlYf7caDZHtsWiKDZu3Njr9Zb9hLAsy40bNxZF0Rzh7l3qiqLo9Xp79uypqmpkG62qqorx0UcfXboHMgwtVlU1MzPT7XbH3QmMzWAwmJubW/a3FtrtdrfbPaCneWAhRQhhofrC5ztuu+07Rx55ZJZl9917X1kOjjrqqCc/uCgal1xyySWXXLLwx3e+851VVZ155pkHtEVYTnbu3HnPPff81E/91LgbYQn75je/+Z3vfKfdbu3/oemJMWs0GuvXr9+zZ0/Ismwkg/Lk5NTnPve5z3zmM6PY2LhdeOGFRx111I8tbGQfut3e6aefftZZZ41yo2VZfupTn3rOc56z7IMz2IfPfOYzZ5xxxurVq8fdCIzNTTfddPzxx23ZcvS4GznkjjjiiANasbj/kCLGODc3NzEx0ev15ufnd+/efdhhh61bu/YFL3jB+9//gdNOe8aePXs+eu21p5562jOe8Yx91BkMBu4YsMLFqlrGq7kYjfC4cTdykBY6f+wJjORJLN19dXCW9Ntj9MayuxZWbcSqyoQUrGwxjm4FE6QoxqpaEVODA50B7T81mJ+f/8AHPnDKKafcdNNN119//Ytf/OJ3vvOdg7K88sorG43Gy172ste85jWbNm16+9vfvp9h3twMAAAAeHr7X0nRbrcvvfTSl770pRMTE1kW+/3BYYcd1mw2t23b9qd/+qf33ntvCOHYY4/dsGHDCNoFAAAAlqv9hxR5nh9//PHHH3/8T/7Vpk2bNm3aVH9TAAAAwMrjSyIAAACAJAgpAAAAgCQIKQAAAIAkCCkAAACAJAgpAAAAgCTs/7d7ALAsxZhNTEwURRFjHNlG8zzP8zA1NTWyLU5PTzcaBruxC5OTk/UUCqEsy/n5+RBqqQcApMV1G8AK1Wq1Pve5zz344IN5PrpVdevXr3/pSy/8i7+4LoxwitloNH7hF35hZJsbl8FgsHXr1n6/P+5GflKoquov//Ivq6oavlZVVRs3bnzRi16Y5DMFAIYlpABYoRqNxte//vXbbrttlBs95phjzjvvvE9+8pOj3OjrX//6V77ylXNzc6Pc6OiFEAaDfq/XT3CJQYzxs5/97Pz8fC3VTjvttJe85CVCCgBYloQUAIxOu9Ua5cKNBf1+f25ubn6+M+LtjkWCCQUAwOL54kwAAAAgCUIKAAAAIAlCCgAAACAJQgoAAAAgCUIKAAAAIAlCCgAAACAJQgoAAAAgCUIKAAAAIAlCCgAAACAJQgoAAAAgCUIKAAAAIAlCCgAAACAJQgoAAAAgCUIKAAAAIAlCCgAAACAJQgoAAAAgCUIKAAAAIAlCCgAAACAJQgoAAAAgCUIKAAAAIAlCCgAAACAJQgoAAAAgCY1xNwAAS0vo9/tZFrMsjLuTQyjG2Gg08jzPsjjuXgCAFWSZhxR/ff31nflOateRg8Hg1FNPfc5znjPuRmCcdu3a9alPfarZbI67kadQVdWrXvUL7fZELdVmZ2f/+q//uiiK4UuFEObn59PcaStHVZa/+Iu/ODExEeNynr23Wq1Pf/rT999/f1FYdAkAjM4yDykeevjhubm9IaQVUvR6/b179467CxizQb+/a9eudrs17kaeQllWVVXb/LMsy127djWbNZxvY8xCCG5uj1fMsvXr101MTI67kUOu0Wgs7yAGAEjQMg8p8jzP8zy1kCLBlmAMQlg4Qsfdx1Ood14WQlb3MzVvBABgeUpxegAAAACsQEIKAAAAIAlCCgAAACAJQgoAAAAgCUIKAAAAIAlCCgAAACAJQgoAAAAgCUIKAAAAIAlCCgAAACAJQgoAAAAgCUIKAAAAIAlCCgAAACAJQgoAAAAgCUIKAAAAIAlCCgAAACAJQgoAAAAgCUIKAAAAIAlCCgAAACAJQgoAAAAgCUIKAAAAIAlCCgAAACAJjXE3sISEEEKWxXoKhTB8HeCfxccOrboO0uGLHBJ1P81knygpiI+rpdTwRQCAlUBIsUihqqpOp1PLFX2v15ubm8uyrNvtDl8txthqtfLcohhWthC63e5gMKjlIC3LstudL4pi+JlVCKHb7Q3f0hPl+v1+r9er5WlWVSzLavg6h8LExMT09HQtM9s9e/Y0Go1aYp2VptVqTU5OFEUxdKVQluWqVaumpqaG72owGLTbbakHACxXQopFyfN89+5dl1/+nroKXnDBBffee2+nMzd8qW6390u/9EtHH3308KVg6ZqamvrIRz5y880311Wwqqo1a9bEWMscPjSbzVomyRMTEzfeeON11103fKnEnXDCCZdffnktJ8nHU+Z5y0YO1Pbt2+sqVVXVwn/reBVCjLHT6XhBAWBZElKMRwihKPJalj/kee46DWqX53me5/XdrHXX9wDFWJZlWZZ11TOhHbuyLGNVZTW9EF5QAFiufEYAAAAASIKQAgAAAEiCkAIAAABIgpACAAAASIKQAgAAAEiCkAIAAABIgpACAAAASIKQAgAAAEiCkAIAAABIgpACAAAASIKQAgAAAEiCkAIAAABIgpACAAAASIKQAgAAAEiCkAIAAABIgpACAAAASIKQAgAAAEiCkAIAAABIgpACAAAASIKQAgAAAEiCkAIAAABIgpACAAAASEJj3A0ApKjVarXb7RiroSuFGKtutxdCDV0tA/3BIMY42m2GsizLsgw1vQZlWY76GSwL/X4/VlWW2JHQ7/eravjDHACojZAC4Cl87Wtfm5ycHH46HWOcmJg488wzq6ocvquyLI844ohnPetZrVZr+GqjF2PcsGHDxMTEOeeck+dPu5SvLMtNmzaVZQ17bKHaxo0bD1u/vqohcsqyLKuqWBRFLaVWjhDCKaecEqsqSyujyPr9wfr168fdBQDwz4QUAE/hmmuuqavUli1bnv3sZ/d6NUy5e73eWWeddc4554x8MUJtiqKYnJx8y2/+5j6eQAihLMv5+flabroPBoOTTz75rLPOqqEWByuE8JKXvGTcXQAAS4CQAmDJCCEbDPqDQX/cjRykGLNGo9Fut/fOzYUs2/dN9cQ+FgAAwCj44kwAAAAgCUIKAAAAIAlCCgAAACAJQgoAAAAgCUIKAAAAIAlCCgAAACAJQgoAAAAgCUIKAAAAIAlCCgAAACAJQgoAAAAgCUIKAAAAIAlCCgAAACAJQgoAAAAgCUIKAAAAIAlCCgAAACAJQgoAAAAgCUIKAAAAIAlCCgCA/7+9O4+uqrr/Pr73Ge6U5F5mAlEBgThCGfoDylBQoViqYqsVxf4qiktX0fiTYVFb9ZFa0EecatWlVP256vK3Wlb1qUWwiGKxrWCrRYVIIyIGA4FEIsQkdzrDfv64ymP7yCD35J6Te9+vv7jkZO/vHfbJPZ+z9zkAACAQCCkAAAAAAEAgEFIAAAAAAIBAIKQAAAAAAACBQEgBAAAAAAACwfC7AADAsZOOY1uWLaX0u5LjoZRyXVcplclkpBRCFOJZZDIZx3EK0BEAAADyF7iQora2tqGhwTD0/JuSUmaz2cJ8CfaRYRj/2PyPf9bVKeX6Xcu/cxy3srJyxIgRfhcCFAnbtgcNGnTmGWdYtu13LccpnUrV79p13nnnFaxH13V79+5dsO4AAACQj8CFFPv27aurqwuFzPybUkoYhiGlFELl31pg6bq+e/ce13UDeGLVsmzHcQgpAK+4rptIJE4aMMDvQo5fR0dH4969gwcP9rsQAAAABFHgQgpd103TNAwPCyvmhEIIIYTSdU3Xg3h5EaWErnswKQZA0bBtW6mi3y0DAADgOAXxyBYAAAAAAJQgQgoAAAAAABAIhBQAAAAAACAQCCkAAAAAAEAgEFIAAAAAAIBAIKQAAAAAAACBcPx3+nQc50+vvPL6315PpzNCCEPXL7r44mHDhnlXGwAAAAAAKCHHP5PCsqzf/Pa3jz32eCqVOnjw4MHW1mw262FlAAAAAACgpBz/TAohRCwWmzRp0r333ntMW0uZT18AAAAAAKC45XVNCtu2N2zY8L3vfW/u3LkbNvzpyBtLKYVS+XQHAAAAAACKmFTHGxxks9nf/uY3+1taKisrN27cuGHDhiVLbrv44u8f2sCyrDvvvPOpp54yDENK2djY+N3vfnfOnDmWZQnx5Z1KIZOpVACXjUgpHcdpaWnxZDqI66pYLBaPx13X9aC5YDNNsywWU4d5x0uMtCzLtu1oNHq4IVBKpG3bHR3tQngzx0rTtNbW1nQ6JQM2aUspoet6z549j3tn+2/CoVA0Gu26Y8px3EwmE41GA/ZGAYWjlEomU7FYjFGAkqWUSKVS4XBY17mKP0qWTKVShmGYplnUhwYyFArdfvvtM2bMWLhw4TH+zvEv9wiZ5qxLL9V13TCMSy65pKamZuXKlZMnT+ndu/dnTRvG3LlzZ86cKaUMh8M///nPE4nE2LFjs9ns4aZUmKHQxo2v7W1sNMy81qF4TkrtwIEDDz30kGF4UFg2mx0zZsyFF16YTqfyby3IbNs58cQTx0+YYAUveCo0KaTU9u7du2/fvpEjRyqlSnxikabrzc3N69atC4VMTxqMRKK///3vt2zZYpreNOgV13V79OhRU1NjWR6MAsuyTz311DFjxnTVMSVle1vb1trasWPHCiFKfBSgRElh286mTZtGjx5tGHoxfy8FDkdKIcSmTZuGDRtWXl7O3wKUIimllG9t3lzZr1+/fv2Ucov2z4GU0Wi0T58+juMc+y/lccgtZTgc/qwVwzjjjDNWr17d0tJyKKSQUlZVVVVVVeUe9u3bVwoRjUaj0egRWtV1w7Jtj86tekbT9EwmXV9f71WDQ4YMcV3Htm2vGgwmy7I1TYvFYiIW87uWQGhtbTUMIx6P+11IIHR0dFiWpWnejHbXdVtaWnbt2uVJa97KZDKO4814tyzLNM0uPaaklJqmJRIJvwsBfGPbtpQykUh4cuYD6KI0TYtXVFTwpQglzDDNsrKyUjg0CIfDX2lO8fHPsFJKdXR0HOpsx44dpmke4SVWrsu1M1HqOFeAkufVsheg6/psFDAWUPK67tJFwBtKlcj3oq/6NI8/wu/o6Fi8ePGECRMSicRrr722bt26xYsX9+/f/7gbBAAAAAAApez4QwpD18vKyp588sl0Oj1gwID77rvv3HPP9bAyAAAAAABQUo4/pIhEo3fffbeHpQAAAAAAgFLGXX8AAAAAAEAgEFIAAAAAAIBAIKQAAAAAAACBQEgBAAAAAAACgZACAAAAAAAEAiEFAAAAAAAIhOO/BelXJqVSrhBCKaWU+tJNNE073I+Or0vHcYTwoEGlhOO4QohYLJZ/a8lkUtM0L5+op5QSrut40pTjOI7jCCFc1/WkQSmllNKTpoR3VR0jTZPu5x/+AncdQJqmef4iaFIKjwaph9LptK7rfldxWMp1C7krkvKzD39XHwKaRsQPAADQKQoXUpimuXnz5ieffNKyrMMHB1IpZRreVGUYxm233fbxxx+bpplnU5lMpqqq6vHHH89mM/kXppSQUqZSqfyb6gQyk0nPnz8/FArl31Ymk/n6179+4MCBZLLDi9ay06dPr66uzr+pnKeffjqVSnkXehyFUiISiUQikRUrVkghRKH6DSylRNiLj1lOMpmcffnls2fPDuQLK7PZrN81fLnVq1c37N5tGAWKUZQShmEkEonHHnus644Cx3GvvPLKSCTidyEAAABFqIAzKT6fQ6GUOnxIoYTw8murUsp13UzGk2RBaZrm6dmzoE6lEEop5cmLJv7lTfegKY9fNI8KO+beck9BFLLToPPyGFVpmgzwUW9A33R1xNlt3ndXFKPA+30RAAAAPseEVQAAAAAAEAiEFAAAAAAAIBAIKQAAAAAAQCAQUgAAAAAAgEAgpAAAAAAAAIFASAEAAAAAAAKBkAIAAAAAAAQCIQUAAAAAAAgEQgoAAAAAABAIhBQAAAAAACAQCCkAAAAAAEAgEFIAAAAAAIBAIKQAAAAAAACBQEgBAAAAAAACgZACAAAAAAAEAiEFAAAAAAAIBEIKAAAAAAAQCIQUAAAAAAAgEAgpAAAAAABAIBBSAAAAAACAQCCkAAAAAAAAgUBIAQAAAAAAAsHwu4B/oZQwDEPTNCFU/q0Zhpl/I4dIKU3TVMr1pDHHcRzHkdKLxoIt97RWE4MAABfJSURBVLqZpgfvhesqKQMZqykhpDRN80ifWyWUEIZhaJ9tKbrku6+EZdueDE+lhKZphmF40lrpUEroeiBHgRBCSMMwjvzBVkoYhi679CgQQtNcIbpm6QAAAIEXrJBC1/U9e3YfPHjQk2NRwzAcx8m/nRzLsrZu3WpZVv5Nua7bo0ePfv36ua5n5QVWe3v7li1b0ul0/k1lMpnBgwd369Ytm83m35qmaY7rSeQkhJRWNltXVyePeMillOrbp0+fvn23bt2qaYE9zjwSKeXQoUOllPknC5qmJZPJ+vr6LvpS+CWbzZaVlQ0dWu3JmDJNM5PJHPlze+yUUtu2bVPqKJ+NsrLY6aefUVtb61W/hee67u7du2Ox2FGf7LEwDKNv3775twMAAFAcghVSRCKRl19e/9e//tXvQr5Ec3Pz8uXLvWrt7LPPnjPnimQy6VWDgVVXV3fnnXd61VpbW9uHH+7MZDwIKZRS4XDYq+Pt1k8//cUvfnHULcePH3/WWWc98MADefboF9M077//fsPwYL+h63pjY2PXfSl8tG3btnQ6nUql8m9KKRUKhXRd92I+i1TKffTRR4+6WzvxxBNvuummYxkvQdanT5+Kior8QwrXdbt3737FFVd4UhUAAEARCFZIARyZYRjhcMTTJgu61uDzA0Lg+Om6HgmHPZ2HVehRUATTZ0KhUDgczn8BoOuqUCjkSUkAAADFoct/UwQAAAAAAMWBkAIAAAAAAAQCIQUAAAAAAAgEQgoAAAAAABAIhBQAAAAAACAQCCkAAAAAAEAgEFIAAAAAAIBAIKQAAAAAAACBQEgBAAAAAAACgZACAAAAAAAEAiEFAAAAAAAIBEIKAAAAAAAQCIQUAAAAAAAgEAgpAAAAAABAIBBSAAAAAACAQCCkAAAAAAAAgUBIAQAAAAAAAoGQAgAAAAAABAIhBQAAAAAACARCCgAAAAAAEAiEFAAAAAAAIBAIKQAAAAAAQCAYBetJSuk4TiaTsSzrcNtomu44TsFK8pFhGLFYmVJ+1/H/kVJKKf2u4rBCoVAsFtO0YIVruq5HIhG/qyiQWCxmGIbK+7NrmmbpvGgBJrPZrOu6nox613WP5YOR6zH/7vwVi0VjsVj+T0QpFWUgAAAAfEHhQgrbtgcMOGnq1KmWlT3c99hoJLJ///6qqirTNAtW2LHQNK29vf0Pf/iDVw2+v337r371K9u2vWrQQ0HOiTZu3Lhz586gVSilTKVSfldxWFOnTq2srPTqRfuf/3nak3BN07TW1lYPGvqCiRMnDho0KJjDyiuO45x00knZw0e9X4lt26NHj+7evbsnqYHruhdddNFRP2mJRCIej1922WVH2EbX9ebm5nXr1uVfVSf57W9XevJ3ynXdnj179uvfP5vJ5N+a7TgDTjrp5MGD828KAADAL4ULKRzH6du3cujQoUfebNKkSb179zaMwhV2LHRdb2pq8jCk+LC+/sP6eq9aKx1bt27dunWr31V0MaNHjx4+fHg2m82/KaVUTU1NR0dH/k11hjPOOGPKlCnpdNrvQjqRlNK2bcuyPJnw5DjOwIED+/fv70FbQiilpk2bdtS8Q9f1aDT6rW996wjbmKa5bdu2IIcUf/nLX7xqqqqq6u233/ZkhGazWV3XCSkAAECXVsDlHsd2it6yrHQ6bZrBCik0Tc9mPTjNBRReNptNp9OWlf8hkAz4LP3c3iOTKeaQIiewS7Iy6bTjukcoTylhGEY0Gk2n01IIcZgtHcfx5KC9S5BShsNhIbxZ/mfouiftAAAA+CVYa/sBAAAAAEDJIqQAAAAAAACBQEgBAAAAAAACgZACAAAAAAAEAiEFAAAAAAAIBEIKAAAAAAAQCIQUAAAAAAAgEAgpAAAAAABAIBBSAAAAAACAQCCkAAAAAAAAgUBIAQAAAAAAAoGQAgAAAAAABAIhBQAAAAAACARCCgAAAAAAEAiEFAAAAAAAIBAIKQAAAAAAQCAQUgAAAAAAgEAgpAAAAAAAAIFASAEAAAAAAAKBkAIAAAAAAAQCIQUAAAAAAAgEQgoAAAAAABAIht8F/DvHcSzLktLvOv6VpinbdvyuAl2ebduu6/pdBY6FtG1bCOV3GZ3Ltm2lPHyOynZs13HF4XfgSgkpZa5rKcTht5SOwy4XAACgFAUupJg4ceLYsWODFlJIqbW2HhRCmKbpdy3oqpRSiUQikUgsXbpU0wo0iUkpFY/HLcvypDEp5c033+xFU95Tyi0vr8hkMp605jjOrFmzIpFIcecUSolYLOZVa1Jq//mfPzzaKybb2treeeedOXPm5Er40o103WhoaIjH4+Fw2Kvygkkppeu6V59bAACAIhC4kCISiUQiEb+r+BKu6/bq1cs0A/eKoWtQQgkRiURCIbN3795HPIfsLem6rlDKk+6kFL169ixU5V+VdF1XKeVVxFlWVhaNRr1pq2SUl5cfdRvXdTVNO+qW8Xi8V69e4XDIo9KCSynhum7QonkAAAC/cMj9Fbiuy1x9HLfcochnBySiYCGFEJ725So3yHMLONILvmNcYKKUKp1dLp9bAACAQ7hwJgAAAAAACARCCgAAAAAAEAiEFAAAAAAAIBAIKQAAAAAAQCAQUgAAAAAAgEAgpAAAAAAAAIFASAEAAAAAAAKBkAIAAAAAAAQCIQUAAAAAAAgEQgoAAAAAABAIhBQAAAAAACAQCCkAAAAAAEAgEFIAAAAAAIBAIKQAAAAAAACBQEgBAAAAAAACgZACAAAAAAAEAiEFAAAAAAAIBEIKAAAAAAAQCIQUAAAAAAAgEAgpAAAAAABAIBBSAAAAAACAQDD8LqALUTl+l4Gu6tBnRylXCOlrLTgKRnoQsMv9qni9AABAESCkOFZSahUVFbqu+10IujDDMHRdLy8vJ6QIONd1peQ98pOu6xUVFaZp+l1IVxIKWeFw2O8qAAAA8kJIcazKy8vnzJnjdxXo2vbs2bNr167x48f7XQgQdH369Lnqqqv8rgIAAACFxjUpgMJxHYfp2AAAAABwOIQUAAAAAAAgEAgpAAAAAABAIBBSAAAAAACAQCCkAAAAAAAAgUBIAQAAAAAAAoGQAgAAAAAABEK+IcWBAwduufnm0047bcSIEY8++mg6nfakLAAAAAAAUGqMfH45nU7ff//9a1544Ze//OWePXvuuuuuSDg858orvSoOAAAAAACUjrxCiqamphdeeOGGG2qmTZsmhKitrf3DqlXTzz23X79+HpUHAAAAAABKRV7LPT755JOWlpaxY8flHo4YMeLgwYMtLS1f3pOuaxqXwEBJM0zTMPJKBoGuzjAMRgFKXG4U6AwElDbDMAzD9LsKwE+lc2jwVXOAvF6UA598YhhGIpHIPUwkEul0OpvN5h66rrtlyzvbt7+vaZppmtu3bxdCPPPMM7ZtK6Xy6RfocqQQQsqDBw+2trZ++OGHQghGAUqQlDKdTjU07G5qapJSMgpQgqQQjuvu2LFj//79uqYxBlCCcvv/HTt2fPTRR5FIhL8FKEFSSiHErl27EolEt27divjAQEppmub7779/+umnH/tv5RVShCMR13Uty8o9tCxL/8J0Cdd1//KXvz777LO6rmtSfrBzp6ZpK1ascF03n06BLkpK2dzc/PHHH5955pmMApSsjo6O7du3jxw50u9CAN84jrN58+ZRo0bpuu53LYBv3nrrrVNOOSUWi/ldCOAPTdNqa2t79+7dp0+f4s0ohBBCKSWlHDx48LH/Sl4hRa9evXRd37lz58CBA4UQO3fuLCuLVVRUfNa0YdTU1NTU1OQeLlq0KBwOL1u2LJ8egS5t5cqVTz311Jo1a/wuBPDNe+/VXXjhd9evX+93IYBvMpnMySefvG7dulAo5HctgG9OPfXUX//619XV1X4XAvjm29/+9lVXXfX973/f70I6nVJKyq+wfV4Xiejdu/fw4cMfe+yx9vb2hoaGVatWDR/+taqqqi/d2HVd27bz6Q7o6mzLYg4FSlw2axX36QLgqLLZrFLq0PJYoDQppQ5NxwZK0xcXJRQ3KWVu+fsxyiuk6NGjx4033tjc3Hz++edfcskl/fr1mzt3biQS+dKNlVJ8MUWJcxkFKHnkdIBSrmAsAIwCgKvUHUa+VxP9xjfGPfzww//85zbDMEeMGHHiiScebsvhw4cbBmsvUdIGDBgwfvx4v6sA/NStW7dzzjnH7yoAP5lmaPr06az1QIk755xzDl19HyhN48ePP+mkk/yuIogKd3H19vZ2IUR5eXlhugMCKJ1Op9Ppbt26+V0I4BvbtltbW3v27Ol3IYBvlFItLS09e/aUX2mFLlBcWlpauiUS3IsXpezgwYPRaCQc/vKFCKWMO8ABAAAAAIBAyOuaFAAAAAAAAF4p0AwrpVSyo6MjmdR1PRGPG6ZZmH4BHzmOk0wms9mMlFpFRblphg79f3t7eyaTMU0zkUhoGlkhipZt28lkMpPJCCHC4XA8XnHo2s65gZBOp0OhUDwe13UuWoTi5DpORzKZSaddpQzDiMfjhmGIf/1qVFFRwSUqUApcx2lrbxdCVFRU5L7/pFKpQ0vCo9Goz/UBnSmZ7OjoSB66Xmw8Hs995jOZTFtbm+u6ZWVlZWVlvtYYFAU6Otq8efPlP/jBuHHjJk6ceP8vfpFMJgvTL+Cj2traefPmTZ48ZciQIS+/vP7Q/7+4du0FF1wwduzYs88+e+XKldyaF0Vs7dq1s2fPnjx58pQpUy6++OL161/54o9mzJgxbty4qVOn/p9nn2UgoFh9WF+/cMGCKWedNXHixGnTpt17770dHR1CiO3bt1962WXjx4+fNGnSXXfd1dbW5nelQKd7bePGsWPHzpgxY9eueiFEU1PTNddcM3HixIkTJy5YsKC5udnvAoHOYlnWj398U//+/b/xjW+MGTNmwoQJzz//vBCio6Pjpz/5yeTJkydMmPDDH/5wx44dflcaCIUIKRobG5cuXRoKhf785z8vX7784YcffmHNmgL0C/jLMPQpU6Y89NBDhmEcujra5s2bf7506bhx4/7+979fffXVP/7xj7du3epvnUDnaW1tPffcc9esWbN+/csjR468+uqr9+/fL4R4++23b7vttsmTJ//jH/+YPXv2zbfc8vbbb/tdLNApysvLL//BD1atWvXmG28sW7bsgQceePHFF9Op1I03/pdpmq+++ury5cufeeaZJ554wu9Kgc7V0NCwcuXKaDRaWVnpukoIsXjx4l27dj333HNPP/30u++++79uvdXvGoHOowzDmDlz5s6dO3fV19f9858XXXSREOLOO+/c8OqrjzzyyNq1a13XnTdvnt91BkIhQopt27Z99NFHNTU1J5xwwvnnn3/WWWf9/rnnOGOAonfGGWfOnTv3m9/85hev3/63118PhULz5s3r3bv3ddddN3DggOeee45zyChWl19++fXXXz9o0KDKyn4/W7IklUrlThG88cYbhmEsWrSoR48eCxcu7NOnz8svv2xblt/1At7r27fv5MmTTz755Hgice655/bo0aOxsfGDnTvfeWfLsmXLqqqqzjvvvO985zsbNmz45JNP/C4W6CzpdPqJJ55IJBKzZ8+2bVtK2dbWtn79+iVLlpx22mn/8R//cf311//t73+vr6/3u1Kgszi2vXv37hdfXPvy+vUf79+v67plWX/84x+vvfbaSRMnDh48eOnSpXV1dZs3b/a7Uv8VIqTYt2+fruvV1UNzD0eNGtXY2JjJpAvQNRAoruN8WF/ft2/fQ7dEHjZs+I4dOxzH8bcwoABWPf98NBodMmRIJpOuq6urrKzs0aNH7keDBw/+4IMP0pmMvxUCncS27T++8MLdd989b9686urqGTNm1NbWhsPh0047LbfBoEGD2tvb9+7d62+dQOdZs2bNli1brrvuulgs5rquruvvvlvrOM7IkSNzG5xwwgmmaTLXHcVLVvbrV1FRsWLFr5YtW7Zw4YL33nvvo48++vTTT4cPGyY1TQjRp3fvXr161tbW+l2q/woRUrS3t5umeegGsGWxWCqVOnTJEKB0WLaVTHaEw+FDcyvKysqSySR3AkbR27Rp0x133HHDDTf06tXLsuxUKvXFywSWl5en02mXtA5FSin1YX3966+//tZbb8Xj8fKysvb29tzlM3MikYgQIpvN+lcj0InefffdZ5999uqrr+7fv7/jOKFQSNe0trZ2TdPMz6+mb5qmaZqpVMrfUoFOouv6rFmznvzv/3766afvueeeffuaHnzwwb1790opzc+/EUlNi0ZjuesWlbhC3N2jvLzMsqxDUyc6kslIJCIldzRAyTENMxYra27+WCmVyyk6Ojqi0egX14MAxWfTpk0LFiyYOXNmTU2NEMIwjGg0+sXjsfb29kgkonGDDxQp0zR/9KMfXXPNNXv27L7iijm/euyxk08++YsL/dLptBCCG3ygKDmO88orr7z00ku6rj/zzDPbtm1ramr60bx5l18+W0ppfb7Qz7Isy7K4wQeKlaZpgwcPzv179OjRF1988fPPP//xxx8bhmF9/o1IuW4qleQGH6IwMyn69q10XWfH+59N39q8eXNVVVXupAFQCqSUuftsabo+cODApqamhoaG3I+2bt06ZMgQbr6IIrZx48YFCxZMnz79pz/9ae7UcSQSOeWUU5qamg4cOJDbZufOnYMHD46Ew75WCnQiKaVhGAMGDDzllFPeeuut008/LZPJvPfee7mf1tfXl5eX9+vXz98igc4ghRg7duz8+fOrhw6trq7u1atXWVnZgAEDRo0apevaO++8k9tsz549lmUNGTLE32qBwrBtO5vNDhkyJB6Pb62tzc2q/nj//paWT84880y/q/NfIUKK008//cQTT3rwoYcaGxvXrFnzpz/9aebMmRUVFQXoGvCRbVmNjY0NDQ2u6zY3N+/du9eyrHHjxmWz2UceeaSlpeWRRx6pr6+/8MILvzjpFygmGzduXLhw4eTJ37yhpkbTtHQ6nbsCy5gxYyzLuvfeew8cOHDfffc1NTVNnTrV+HzSL1BMamtrf/e73zU3Nx84cGDVqlVr166dNGlSdfUpw4cPv/nmm3NfjdasWTN58uRDV2kBiomm62PGjPnJT35yy6233nTTTVPPOWfgwIE33vhf1dWnTJ48ZcmSJe+9996bb7750EMPjRkzZuDAgX7XC3SKbDa7YsWKnTt3tra2rlmz5vHHH//a1742bNiwadOmrVix4rXXXvvggw9uvfXW6urqUaNG+V2s/2RhFsO/+eabt99+e+4yUVdeeeV18+aVlZcXoF/AR++///5ll122d+/e5ubm7t279+jRY/78+ddee+3q1auXL1/e0NDQrVu3RYsWzZo1i5ACxerGG2984IEHqqqqwuGw67qmad5zzz0XXHCBEGL16tV33HHHvn37unfvvnjx4osuuoiBgKL02muv3XLLLXv37tU02aNHz5kzZ1577bXxeLyurm7RokV1dXWhUGjWrFnz58+Px+N+Fwt0uvvuu++ll1568MEHhwwZ0rRv38JFi9544w0hxFlnnbVkyZLKykq/CwQ6RTqdnjVr1o4dO2zbTiQS06dPr6m5vk+fvu3t7bfeeuu6deuy2eywYcPuuut/Dx1a7Xex/itQSKGU297e0dHRYRhGIpEwOV2GEmDb9oEDBxzH0XU9d6XY8vLysrIyx3Ha2trS6bRpmt27d9M01nqgaLW1taVSSaVEbghIKbt165Zb7ndoIIRCoUQiwaInFCvLstra2nIL703TjMfjuTxOKdXe3p5MJnVdr6ioCLPcCaUhlUpZVrasrDy3208mk+3t7UKI8vLyWCzmd3VAp1Hq07ZP0+m06yrTNMrL/99uP51Ot7W1ua5bVlZWzol8IUTBQgoAAAAAAIAj4xYbAAAAAAAgEAgpAAAAAABAIBBSAAAAAACAQCCkAAAAAAAAgUBIAQAAAAAAAoGQAgAAAAAABAIhBQAAAAAACARCCgAA0Fl+9rOfLV68OJ1O5x6+++67l1566auvvupvVQAAILAIKQAAQGc577zznn322VWrVgkhDh48uHTpUsuyxo0b53ddAAAgoAy/CwAAAEVr9OjR8+fPX7JkyYQJE1544YWtW7euWrUqHA77XRcAAAio/wum8yb/sfspKAAAAABJRU5ErkJggg==;" vertex="1" parent="1">
          <mxGeometry x="460" y="810" width="1420" height="912" as="geometry" />
        </mxCell>
        <mxCell id="-cgsFTUKVh0ujgJ57k_H-15" value="" style="rounded=1;whiteSpace=wrap;html=1;strokeWidth=4;fillColor=none;" vertex="1" parent="1">
          <mxGeometry x="830" y="1250" width="220" height="190" as="geometry" />
        </mxCell>
        <mxCell id="-cgsFTUKVh0ujgJ57k_H-16" value="" style="rounded=1;whiteSpace=wrap;html=1;strokeWidth=4;fillColor=none;" vertex="1" parent="1">
          <mxGeometry x="590" y="1410" width="190" height="160" as="geometry" />
        </mxCell>
        <mxCell id="-cgsFTUKVh0ujgJ57k_H-23" style="edgeStyle=orthogonalEdgeStyle;rounded=0;orthogonalLoop=1;jettySize=auto;html=1;entryX=1;entryY=0.5;entryDx=0;entryDy=0;" edge="1" parent="1" source="-cgsFTUKVh0ujgJ57k_H-18" target="-cgsFTUKVh0ujgJ57k_H-22">
          <mxGeometry relative="1" as="geometry">
            <Array as="points">
              <mxPoint x="1015" y="1305" />
            </Array>
          </mxGeometry>
        </mxCell>
        <mxCell id="-cgsFTUKVh0ujgJ57k_H-18" value="" style="rounded=0;whiteSpace=wrap;html=1;fillColor=#0000ea;" vertex="1" parent="1">
          <mxGeometry x="1000" y="1390" width="30" height="30" as="geometry" />
        </mxCell>
        <mxCell id="-cgsFTUKVh0ujgJ57k_H-21" style="edgeStyle=orthogonalEdgeStyle;rounded=0;orthogonalLoop=1;jettySize=auto;html=1;entryX=0;entryY=0.5;entryDx=0;entryDy=0;" edge="1" parent="1" source="-cgsFTUKVh0ujgJ57k_H-19" target="-cgsFTUKVh0ujgJ57k_H-18">
          <mxGeometry relative="1" as="geometry" />
        </mxCell>
        <mxCell id="-cgsFTUKVh0ujgJ57k_H-19" value="" style="rounded=0;whiteSpace=wrap;html=1;fillColor=#ffff88;strokeColor=#36393d;" vertex="1" parent="1">
          <mxGeometry x="870" y="1330" width="30" height="30" as="geometry" />
        </mxCell>
        <mxCell id="-cgsFTUKVh0ujgJ57k_H-24" style="edgeStyle=orthogonalEdgeStyle;rounded=0;orthogonalLoop=1;jettySize=auto;html=1;entryX=0;entryY=0.5;entryDx=0;entryDy=0;" edge="1" parent="1" source="-cgsFTUKVh0ujgJ57k_H-22" target="-cgsFTUKVh0ujgJ57k_H-18">
          <mxGeometry relative="1" as="geometry">
            <Array as="points">
              <mxPoint x="980" y="1405" />
            </Array>
          </mxGeometry>
        </mxCell>
        <mxCell id="-cgsFTUKVh0ujgJ57k_H-22" value="" style="rounded=0;whiteSpace=wrap;html=1;fillColor=#ffff88;strokeColor=#36393d;" vertex="1" parent="1">
          <mxGeometry x="970" y="1290" width="30" height="30" as="geometry" />
        </mxCell>
        <mxCell id="-cgsFTUKVh0ujgJ57k_H-29" style="edgeStyle=orthogonalEdgeStyle;rounded=0;orthogonalLoop=1;jettySize=auto;html=1;entryX=0.5;entryY=1;entryDx=0;entryDy=0;" edge="1" parent="1" source="-cgsFTUKVh0ujgJ57k_H-25" target="-cgsFTUKVh0ujgJ57k_H-26">
          <mxGeometry relative="1" as="geometry" />
        </mxCell>
        <mxCell id="-cgsFTUKVh0ujgJ57k_H-25" value="" style="rounded=0;whiteSpace=wrap;html=1;fillColor=#0000ea;" vertex="1" parent="1">
          <mxGeometry x="610" y="1520" width="30" height="30" as="geometry" />
        </mxCell>
        <mxCell id="-cgsFTUKVh0ujgJ57k_H-28" style="edgeStyle=orthogonalEdgeStyle;rounded=0;orthogonalLoop=1;jettySize=auto;html=1;" edge="1" parent="1" source="-cgsFTUKVh0ujgJ57k_H-26" target="-cgsFTUKVh0ujgJ57k_H-25">
          <mxGeometry relative="1" as="geometry" />
        </mxCell>
        <mxCell id="-cgsFTUKVh0ujgJ57k_H-26" value="" style="rounded=0;whiteSpace=wrap;html=1;fillColor=#ffff88;strokeColor=#36393d;" vertex="1" parent="1">
          <mxGeometry x="700" y="1430" width="30" height="30" as="geometry" />
        </mxCell>
      </root>
    </mxGraphModel>
  </diagram>
</mxfile>
